<svg width="256" height="256" viewBox="0 0 256 256" fill="none" xmlns="http://www.w3.org/2000/svg">
<g clip-path="url(#clip0_318_164)">
<rect width="256" height="256" rx="32" fill="black"/>
<path d="M83 159.48H90.38V177.192L105.468 192.28H158.276L84.64 105.524V82.892L99.892 67.64H164.344L175.824 79.12V66H183.204V107H175.824V89.288L160.736 74.2H112.848L186.484 160.956V183.588L171.232 198.84H101.86L90.38 187.36V200.48H83V159.48Z" fill="#8661A2"/>
<path d="M76.2215 152.64H83.6015V170.352L98.6895 185.44H151.497L77.8615 98.684V76.052L93.1135 60.8H157.565L169.045 72.28V59.16H176.425V100.16H169.045V82.448L153.957 67.36H106.069L179.705 154.116V176.748L164.453 192H95.0815L83.6015 180.52V193.64H76.2215V152.64Z" fill="white"/>
<rect x="76" y="115" width="95" height="23" fill="black"/>
</g>
<defs>
<clipPath id="clip0_318_164">
<rect width="256" height="256" rx="32" fill="white"/>
</clipPath>
</defs>
</svg>
