<svg width="511" height="148" viewBox="0 0 511 148" fill="none" xmlns="http://www.w3.org/2000/svg">
<path d="M8.06641 117.266L7.27539 116.879C7.48633 115.555 8.10742 114.693 9.13867 114.295C9.4668 114.178 9.8125 114.119 10.1758 114.119C11.1836 114.119 12.0684 114.5 12.8301 115.262C13.5918 116.012 13.9727 116.855 13.9727 117.793C13.9844 119.012 13.7266 120.418 13.1992 122.012C11.9336 125.797 9.69531 129.477 6.48438 133.051L5.27148 134.334C4.81445 134.744 4.50391 134.961 4.33984 134.984C3.83594 134.973 3.34961 134.486 2.88086 133.525C3.0332 133.092 3.79492 130.654 5.16602 126.213C6.54883 121.771 7.51562 118.789 8.06641 117.266ZM9.63086 116.088C9.63086 117.061 9.44336 118.162 9.06836 119.393C8.70508 120.611 8.44141 121.484 8.27734 122.012C8.125 122.527 7.67383 123.887 6.92383 126.09C6.18555 128.293 5.63477 130.115 5.27148 131.557C6.17383 130.607 7.05859 129.471 7.92578 128.146C7.97266 128.076 8.01367 128.018 8.04883 127.971C10.7207 123.834 12.0566 119.949 12.0566 116.316C12.0566 115.906 11.9453 115.666 11.7227 115.596C11.6523 115.584 11.582 115.578 11.5117 115.578C10.7734 115.59 10.1465 115.76 9.63086 116.088ZM16.7669 125.387C17.0013 125.352 17.5052 124.848 18.2786 123.875C19.052 122.902 19.4388 122.141 19.4388 121.59C19.4388 121.508 19.4095 121.414 19.3509 121.309C19.1165 121.543 18.6243 122.211 17.8743 123.312C17.136 124.414 16.7669 125.105 16.7669 125.387ZM23.763 128.006C24.3489 127.373 24.677 127.262 24.7473 127.672C24.7473 127.824 24.6536 128.076 24.4661 128.428C23.8919 129.494 23.013 130.625 21.8294 131.82C19.9544 133.719 18.2962 134.668 16.8548 134.668C16.1751 134.668 15.595 134.475 15.1145 134.088C14.2122 133.35 13.761 132.066 13.761 130.238C13.761 129.195 14.0774 127.73 14.7102 125.844C15.3548 123.945 16.3391 122.229 17.6634 120.693C18.2493 119.943 18.8587 119.568 19.4915 119.568C19.7962 119.568 20.1126 119.633 20.4407 119.762C21.2141 120.078 21.6009 120.588 21.6009 121.291C21.6009 121.396 21.5657 121.566 21.4954 121.801C21.0149 122.75 20.2415 123.846 19.1751 125.088C18.1087 126.33 17.0247 127.32 15.9231 128.059C15.5481 129.418 15.3606 130.479 15.3606 131.24C15.3606 132.002 15.3782 132.488 15.4134 132.699C15.5188 133.191 15.9114 133.438 16.5911 133.438C17.2708 133.438 18.0559 133.127 18.9466 132.506C19.8372 131.873 20.7864 131.041 21.7942 130.01C22.802 128.979 23.3704 128.398 23.4993 128.27C23.6399 128.141 23.7278 128.053 23.763 128.006ZM30.565 121.713C30.565 123.412 30.0963 124.285 29.1588 124.332C28.9244 124.332 28.7017 124.273 28.4908 124.156C28.5845 126.219 28.6314 128.229 28.6314 130.186C28.6314 132.143 28.2623 133.531 27.524 134.352C27.1021 134.82 26.5572 135.055 25.8892 135.055C25.233 135.066 24.7349 134.838 24.3951 134.369C24.0552 133.912 23.8853 133.461 23.8853 133.016C23.9088 132.465 24.2603 132.184 24.94 132.172C25.3736 132.172 25.5611 132.471 25.5025 133.068C25.4439 133.666 25.5845 133.965 25.9244 133.965C26.5572 133.965 26.9439 133.162 27.0845 131.557C27.1548 130.818 27.1841 129.793 27.1724 128.48C27.1724 127.168 27.067 126.506 26.856 126.494C26.7623 126.494 26.6334 126.652 26.4693 126.969C26.3052 127.273 25.9068 127.906 25.274 128.867C24.6529 129.828 24.1138 130.543 23.6568 131.012C23.1998 131.48 22.9009 131.738 22.7603 131.785C22.4322 131.902 22.2447 131.797 22.1978 131.469C22.2095 131.117 22.3912 130.707 22.7427 130.238C24.0084 128.562 25.2271 126.629 26.399 124.438C26.6685 123.934 26.8033 123.641 26.8033 123.559V121.027C26.8033 120.547 27.0377 120.178 27.5064 119.92C27.7056 119.814 27.8931 119.762 28.0689 119.762C28.7955 119.773 29.4693 119.99 30.0904 120.412C30.3834 120.623 30.5357 120.857 30.5474 121.115C30.5591 121.373 30.565 121.572 30.565 121.713ZM28.3502 122.891C28.7486 122.82 28.9771 122.686 29.0357 122.486C29.106 122.275 29.1412 122.07 29.1412 121.871C29.1412 121.66 29.1295 121.502 29.106 121.396C28.7545 121.396 28.5142 121.643 28.3853 122.135C28.3384 122.299 28.315 122.451 28.315 122.592C28.315 122.732 28.3267 122.832 28.3502 122.891ZM37.1737 117.793C37.1151 117.77 36.9686 117.676 36.7342 117.512C36.453 117.312 36.3123 117.166 36.3123 117.072C36.3123 116.756 36.7518 116.012 37.6307 114.84C38.5096 113.668 39.0077 112.965 39.1248 112.73C39.4178 112.438 39.8221 112.584 40.3377 113.17C40.7479 113.662 40.8768 114.061 40.7245 114.365C40.6424 114.67 40.1444 115.314 39.2303 116.299C38.3162 117.283 37.6307 117.781 37.1737 117.793ZM41.3748 128.832C40.9412 130.051 40.0799 131.293 38.7909 132.559C37.2674 134.059 35.9901 134.809 34.9588 134.809C33.5643 134.809 32.6912 134.018 32.3397 132.436C32.2342 131.955 32.1815 131.434 32.1815 130.871C32.1698 129.055 32.5155 126.951 33.2186 124.561C34.0975 121.537 34.9295 120.025 35.7147 120.025C36.1014 120.025 36.3827 120.119 36.5584 120.307C36.7459 120.482 36.8397 120.611 36.8397 120.693C36.8397 121.068 36.4588 121.994 35.6971 123.471C34.9354 124.936 34.4608 126.002 34.2733 126.67C34.0975 127.326 33.9627 128.188 33.869 129.254C33.787 130.309 33.7459 130.988 33.7459 131.293C33.7459 132.324 33.869 132.969 34.1151 133.227C34.3729 133.484 34.6834 133.619 35.0467 133.631C36.078 133.631 37.3084 132.734 38.7381 130.941C39.4295 130.062 39.9686 129.254 40.3553 128.516C40.5311 128.234 40.7127 128.094 40.9002 128.094C41.2166 128.141 41.3924 128.299 41.4276 128.568C41.4276 128.604 41.41 128.691 41.3748 128.832ZM51.8859 123.26C51.7101 122.861 51.4816 122.662 51.2003 122.662C51.1183 122.662 51.0538 122.674 51.007 122.697C49.9874 123.096 48.5695 123.898 46.753 125.105C44.9484 126.312 44.0167 127.186 43.9581 127.725C43.9698 127.83 44.0402 127.895 44.1691 127.918C44.5206 127.918 45.1886 127.637 46.173 127.074C47.1691 126.5 47.714 126.189 47.8077 126.143C47.9015 126.107 48.0655 126.02 48.2999 125.879L48.8097 125.58C50.7667 124.49 51.7921 123.717 51.8859 123.26ZM48.6691 129.271V129.219C48.7628 128.633 48.8097 128.316 48.8097 128.27C48.798 128.082 48.628 127.988 48.2999 127.988C47.9718 127.977 47.6085 128.059 47.2101 128.234C46.8234 128.41 45.962 128.879 44.6261 129.641C43.2902 130.391 42.1769 130.766 41.2863 130.766C41.005 130.766 40.6593 130.637 40.2491 130.379C39.4523 129.863 39.4347 129.143 40.1964 128.217C40.7823 127.549 41.7726 126.699 43.1671 125.668L46.3663 123.277C48.6515 121.59 50.1515 120.752 50.8663 120.764C51.5812 120.775 52.2843 121.191 52.9757 122.012C52.6827 122.176 52.4894 122.598 52.3956 123.277C52.4073 123.266 52.4777 123.26 52.6066 123.26C52.7355 123.26 52.8585 123.295 52.9757 123.365C53.1046 123.424 53.1691 123.693 53.1691 124.174C53.1691 124.643 53.1222 124.883 53.0284 124.895C52.8644 124.895 52.5304 125.123 52.0265 125.58C51.5226 126.025 51.1476 126.441 50.9015 126.828C50.6788 128.645 50.2921 130.777 49.7413 133.227C48.5695 138.418 47.3273 142.039 46.0148 144.09C45.6163 144.699 45.13 145.291 44.5558 145.865C43.2667 147.107 42.0831 147.729 41.005 147.729C40.4894 147.729 40.2316 147.605 40.2316 147.359C40.2433 147.266 40.4073 147.178 40.7238 147.096C41.0519 147.025 41.4152 146.873 41.8136 146.639C42.6456 146.135 43.3253 145.461 43.8527 144.617C44.8253 143.07 45.6573 141.178 46.3488 138.939C47.0519 136.701 47.8253 133.479 48.6691 129.271ZM66.8617 127.426C66.8617 128.012 66.1937 129.09 64.8578 130.66C63.5219 132.23 62.5199 133.268 61.852 133.771C61.1957 134.264 60.5336 134.51 59.8656 134.51C58.6234 134.498 58.0023 133.514 58.0023 131.557C58.0023 130.631 58.1898 129.184 58.5648 127.215C58.9398 125.234 59.1391 124.156 59.1625 123.98C57.9203 124.391 56.7309 125.949 55.5941 128.656C55.3598 129.23 54.9848 130.209 54.4691 131.592C53.9652 132.963 53.6078 133.777 53.3969 134.035C53.1391 134.34 52.7992 134.492 52.3773 134.492C51.9555 134.492 51.7387 134.34 51.727 134.035C51.727 133.473 53.6078 128.809 57.3695 120.043C57.9555 118.66 58.2953 117.887 58.3891 117.723C58.5883 117.336 59.0043 117.354 59.6371 117.775C59.8246 117.904 59.9184 118.033 59.9184 118.162C59.9301 118.291 59.8422 118.496 59.6547 118.777C59.2211 119.457 58.8344 120.248 58.4945 121.15L57.8266 122.891L58.3891 122.205C58.893 121.584 59.2973 121.115 59.602 120.799C59.9066 120.471 60.1586 120.289 60.3578 120.254C60.5687 120.207 60.7855 120.184 61.0082 120.184C61.4887 120.219 61.7406 120.477 61.7641 120.957C61.7641 121.191 61.682 121.508 61.518 121.906C60.7797 123.605 60.2113 126.178 59.8129 129.623C59.7074 130.607 59.6547 131.475 59.6547 132.225C59.6664 132.963 59.848 133.338 60.1996 133.35C60.6918 133.35 61.5883 132.588 62.8891 131.064C64.1898 129.529 65.1273 128.258 65.7016 127.25C65.8539 127.004 66.0707 126.875 66.352 126.863C66.6449 126.934 66.8148 127.121 66.8617 127.426ZM75.6318 130.906L75.5263 132.119C75.5263 132.576 75.6845 132.816 76.0009 132.84C76.997 132.84 77.7119 131.176 78.1455 127.848L79.8857 114.436C79.9209 114.201 80.0088 113.967 80.1494 113.732C80.5009 113.17 80.958 112.889 81.5205 112.889C82.083 112.889 82.663 113.111 83.2607 113.557C83.8584 114.002 84.1572 114.594 84.1572 115.332C84.1572 116.059 84.0166 116.814 83.7353 117.6C83.2783 118.854 82.6982 119.48 81.9951 119.48C81.6084 119.48 81.3271 119.352 81.1513 119.094L79.8505 127.918C79.6279 129.336 79.3056 130.578 78.8838 131.645C78.1103 133.531 77.1611 134.475 76.0361 134.475C75.497 134.475 74.9697 134.246 74.4541 133.789C73.9502 133.32 73.6982 132.582 73.6982 131.574C73.6982 130.555 74.0849 130.039 74.8584 130.027C75.3505 130.039 75.6084 130.332 75.6318 130.906ZM81.292 117.266C82.042 117.184 82.4345 116.51 82.4697 115.244C82.247 115.268 81.9834 115.408 81.6787 115.666C81.3857 115.912 81.2392 116.322 81.2392 116.896C81.2392 117.025 81.2568 117.148 81.292 117.266ZM88.4983 121.203L88.7444 121.168C89.3538 121.18 89.6526 121.35 89.6409 121.678C89.6291 121.818 89.594 121.965 89.5354 122.117C89.4768 122.258 89.2776 122.691 88.9377 123.418C88.5159 124.32 88.3459 124.941 88.428 125.281V125.387L89.7288 123.418C90.5725 122.141 91.1995 121.215 91.6096 120.641C91.7268 120.488 91.926 120.412 92.2073 120.412C92.4885 120.412 92.717 120.488 92.8928 120.641C93.0803 120.781 93.1799 120.893 93.1916 120.975L93.0862 121.238C90.9768 126.359 89.9221 130.016 89.9221 132.207C89.9221 133.121 90.2209 133.666 90.8186 133.842C91.3694 133.994 91.9319 133.83 92.5061 133.35C94.1116 132.061 95.5471 130.391 96.8127 128.34L97.1467 127.777C97.2639 127.59 97.4455 127.479 97.6916 127.443C98.008 127.443 98.1663 127.613 98.1663 127.953C98.1663 128.562 97.4924 129.658 96.1448 131.24C94.8088 132.811 93.8127 133.842 93.1565 134.334C92.512 134.826 91.803 135.072 91.0295 135.072C90.2678 135.072 89.6409 134.615 89.1487 133.701C88.8088 133.068 88.6389 132.336 88.6389 131.504C88.6389 130.672 88.8323 129.564 89.219 128.182C89.6174 126.787 89.8342 125.949 89.8694 125.668C89.9045 125.387 89.9163 125.229 89.9045 125.193C89.3538 125.908 88.7209 126.91 88.0061 128.199L86.5998 130.678C86.3889 131.018 86.178 131.188 85.967 131.188C85.3811 131.188 85.0881 130.83 85.0881 130.115C85.0881 129.787 85.3166 129.16 85.7737 128.234C86.2307 127.309 86.4592 126.641 86.4592 126.23C86.2952 126.5 86.0139 127.01 85.6155 127.76C84.7483 129.389 83.6057 130.912 82.1877 132.33C81.6487 132.857 81.1448 133.174 80.676 133.279C79.9846 133.197 79.7854 133.016 80.0784 132.734C80.8752 131.961 81.5198 131.27 82.012 130.66C83.0432 129.383 83.7815 127.918 84.2268 126.266C84.6838 124.602 84.9416 123.629 85.0002 123.348C85.0588 123.066 85.1702 122.609 85.3342 121.977L85.6858 120.729C85.8616 119.979 86.0608 119.504 86.2834 119.305C86.5178 119.105 86.7873 119.006 87.092 119.006C87.6663 119.006 87.9534 119.193 87.9534 119.568C87.9534 119.92 87.508 121.01 86.6174 122.838C85.7268 124.654 85.1819 125.844 84.9827 126.406C85.053 126.324 85.258 126.014 85.5979 125.475C85.9377 124.936 86.137 124.619 86.1955 124.525C86.2659 124.432 86.3948 124.221 86.5823 123.893C87.5784 122.1 88.217 121.203 88.4983 121.203ZM105.636 122.521C103.761 122.838 102.126 124.068 100.732 126.213C99.3726 128.299 98.6577 130.361 98.5874 132.4C101.271 128.861 103.621 125.568 105.636 122.521ZM104.828 121.027L105.865 121.168C106.029 121.168 106.199 121.074 106.375 120.887C106.562 120.699 106.796 120.605 107.078 120.605C107.371 120.605 107.599 120.682 107.763 120.834C107.939 120.986 108.027 121.121 108.027 121.238C108.027 121.344 107.968 121.525 107.851 121.783C107.734 122.041 107.664 122.211 107.64 122.293C106.082 127.18 105.302 130.297 105.302 131.645C105.314 132.113 105.419 132.354 105.619 132.365C106.334 132.365 107.453 131.428 108.976 129.553C109.996 128.299 110.652 127.379 110.945 126.793C111.25 126.207 111.49 125.896 111.666 125.861C111.701 125.861 111.73 125.855 111.753 125.844C111.964 125.867 112.076 125.99 112.087 126.213C112.087 126.635 111.601 127.584 110.628 129.061C108.554 132.225 106.761 133.807 105.25 133.807C104.16 133.807 103.615 133.045 103.615 131.521C103.615 130.795 103.761 129.893 104.054 128.814C104.347 127.725 104.523 127.045 104.582 126.775C104.312 127.127 103.41 128.404 101.875 130.607C100.339 132.811 99.2378 134.111 98.5698 134.51C98.3589 134.627 98.1773 134.691 98.0249 134.703C97.357 134.703 96.8706 134.439 96.5659 133.912C96.4253 133.654 96.355 133.285 96.355 132.805C96.3433 132.312 96.7007 131.188 97.4273 129.43C98.5991 126.594 99.9292 124.408 101.418 122.873C102.589 121.678 103.726 121.062 104.828 121.027ZM117.641 122.943L117.606 123.172L117.571 123.383C117.571 123.664 117.161 124.789 116.341 126.758C115.509 128.727 115.098 130.121 115.11 130.941C115.134 132.336 115.473 133.039 116.13 133.051C116.786 133.051 117.747 132.318 119.012 130.854C120.536 129.096 121.468 127.771 121.807 126.881C122.147 126.002 122.411 125.562 122.598 125.562C122.751 125.574 122.833 125.738 122.845 126.055C122.845 126.359 122.809 126.594 122.739 126.758L122.563 127.232C122.059 128.521 121.268 129.863 120.19 131.258C118.632 133.309 117.243 134.334 116.024 134.334C115.637 134.334 115.286 134.234 114.97 134.035C114.173 133.531 113.774 132.582 113.774 131.188C113.774 130.73 113.874 130.027 114.073 129.078C114.284 128.129 114.384 127.619 114.372 127.549C114.372 127.467 114.266 127.379 114.055 127.285C113.634 127.098 113.352 127.074 113.212 127.215C113.095 127.379 112.573 128.645 111.647 131.012C110.733 133.379 110.106 134.562 109.766 134.562C109.661 134.562 109.462 134.492 109.169 134.352C108.864 134.211 108.712 134.018 108.712 133.771C108.712 133.725 108.864 133.367 109.169 132.699L110.136 130.467C110.815 128.896 111.612 126.805 112.526 124.191L114.864 117.582C114.923 117.418 115.11 117.33 115.427 117.318L115.884 117.301C116.446 117.301 116.727 117.506 116.727 117.916C116.727 118.115 116.423 118.994 115.813 120.553C115.204 122.111 114.811 123.312 114.636 124.156L114.583 124.684C114.583 124.836 114.612 124.924 114.671 124.947C114.706 124.936 114.852 124.678 115.11 124.174L115.567 123.277C115.637 123.172 115.708 123.031 115.778 122.855C116.036 122.375 116.341 122.135 116.692 122.135C117.302 122.146 117.618 122.398 117.641 122.891V122.943ZM127.801 120.412L134.111 120.271C134.24 120.271 134.381 120.389 134.533 120.623C134.686 120.846 134.768 121.15 134.779 121.537C134.768 121.795 134.434 121.93 133.777 121.941C131.832 121.988 129.477 122.223 126.711 122.645C126.512 123.219 126.19 124.045 125.744 125.123C123.787 129.857 122.809 133.18 122.809 135.09C122.809 136.039 122.99 136.953 123.354 137.832C123.986 139.309 124.93 140.047 126.184 140.047C127.156 140.047 127.971 139.795 128.627 139.291C129.295 138.799 130.08 137.984 130.982 136.848C131.264 136.484 131.557 136.355 131.861 136.461C132.154 136.59 132.301 136.842 132.301 137.217C132.301 138.295 131.68 139.191 130.438 139.906C129.195 140.633 127.859 140.996 126.43 140.996C125.012 140.996 123.781 140.475 122.738 139.432C121.707 138.389 121.191 137 121.191 135.266C121.191 134.105 121.338 132.863 121.631 131.539C121.924 130.215 122.457 128.568 123.231 126.6C124.004 124.619 124.508 123.301 124.742 122.645C122.316 122.645 120.963 122.615 120.682 122.557C119.815 122.369 119.375 122 119.363 121.449C119.375 121.273 119.51 121.162 119.768 121.115L125.481 120.641L129.242 114.312C129.676 113.586 130.068 113.223 130.42 113.223C130.561 113.223 130.725 113.246 130.912 113.293C131.604 113.445 131.949 113.697 131.949 114.049C131.949 114.389 131.598 114.916 130.895 115.631C130.191 116.346 129.758 116.803 129.594 117.002C129.043 117.682 128.445 118.818 127.801 120.412ZM134.497 130.854C134.568 131.064 134.65 131.24 134.744 131.381C134.849 131.51 135.072 131.574 135.411 131.574C135.751 131.574 135.98 131.592 136.097 131.627C136.624 131.768 136.888 132.154 136.888 132.787C136.888 132.998 136.841 133.191 136.747 133.367C136.513 133.824 136.156 134.053 135.675 134.053C135.206 134.053 134.796 133.924 134.445 133.666C134.093 133.408 133.923 133.016 133.935 132.488C133.935 132.312 133.941 132.189 133.952 132.119C133.964 132.049 134.146 131.627 134.497 130.854ZM156.697 117.266L155.906 116.879C156.117 115.555 156.738 114.693 157.769 114.295C158.098 114.178 158.443 114.119 158.807 114.119C159.814 114.119 160.699 114.5 161.461 115.262C162.223 116.012 162.603 116.855 162.603 117.793C162.615 119.012 162.357 120.418 161.83 122.012C160.564 125.797 158.326 129.477 155.115 133.051L153.902 134.334C153.445 134.744 153.135 134.961 152.971 134.984C152.467 134.973 151.98 134.486 151.512 133.525C151.664 133.092 152.426 130.654 153.797 126.213C155.18 121.771 156.146 118.789 156.697 117.266ZM158.262 116.088C158.262 117.061 158.074 118.162 157.699 119.393C157.336 120.611 157.072 121.484 156.908 122.012C156.756 122.527 156.305 123.887 155.555 126.09C154.816 128.293 154.266 130.115 153.902 131.557C154.805 130.607 155.689 129.471 156.557 128.146C156.603 128.076 156.644 128.018 156.68 127.971C159.351 123.834 160.687 119.949 160.687 116.316C160.687 115.906 160.576 115.666 160.353 115.596C160.283 115.584 160.213 115.578 160.143 115.578C159.404 115.59 158.777 115.76 158.262 116.088ZM165.398 125.387C165.632 125.352 166.136 124.848 166.909 123.875C167.683 122.902 168.07 122.141 168.07 121.59C168.07 121.508 168.04 121.414 167.982 121.309C167.747 121.543 167.255 122.211 166.505 123.312C165.767 124.414 165.398 125.105 165.398 125.387ZM172.394 128.006C172.98 127.373 173.308 127.262 173.378 127.672C173.378 127.824 173.284 128.076 173.097 128.428C172.523 129.494 171.644 130.625 170.46 131.82C168.585 133.719 166.927 134.668 165.486 134.668C164.806 134.668 164.226 134.475 163.745 134.088C162.843 133.35 162.392 132.066 162.392 130.238C162.392 129.195 162.708 127.73 163.341 125.844C163.986 123.945 164.97 122.229 166.294 120.693C166.88 119.943 167.489 119.568 168.122 119.568C168.427 119.568 168.743 119.633 169.071 119.762C169.845 120.078 170.232 120.588 170.232 121.291C170.232 121.396 170.196 121.566 170.126 121.801C169.646 122.75 168.872 123.846 167.806 125.088C166.739 126.33 165.655 127.32 164.554 128.059C164.179 129.418 163.991 130.479 163.991 131.24C163.991 132.002 164.009 132.488 164.044 132.699C164.15 133.191 164.542 133.438 165.222 133.438C165.902 133.438 166.687 133.127 167.577 132.506C168.468 131.873 169.417 131.041 170.425 130.01C171.433 128.979 172.001 128.398 172.13 128.27C172.271 128.141 172.359 128.053 172.394 128.006ZM173.36 132.559C175.446 130.344 176.952 127.93 177.877 125.316C178.229 124.332 178.458 123.383 178.563 122.469C178.282 122.082 177.86 121.889 177.297 121.889C176.735 121.889 176.331 122.023 176.084 122.293L175.258 125.51C174.473 128.627 173.84 130.977 173.36 132.559ZM169.616 144.072C168.889 145.209 168.051 146.1 167.102 146.744C166.141 147.4 165.362 147.729 164.764 147.729C164.155 147.729 163.85 147.605 163.85 147.359C163.85 147.254 163.991 147.172 164.272 147.113H164.307C165.245 146.902 166.135 146.287 166.979 145.268C167.166 145.045 167.325 144.822 167.454 144.6C168.872 142.35 170.137 138.945 171.25 134.387L173.219 126.09C174.122 122.246 174.678 120.061 174.889 119.533C175.1 119.006 175.334 118.707 175.592 118.637C175.803 118.566 176.073 118.531 176.401 118.531C176.729 118.531 176.916 118.625 176.963 118.812C176.975 118.871 176.981 118.941 176.981 119.023C176.981 119.094 176.934 119.305 176.84 119.656C176.747 120.008 176.7 120.242 176.7 120.359C176.84 120.336 177.057 120.324 177.35 120.324C178.627 120.324 179.489 120.664 179.934 121.344C180.11 121.625 180.198 121.941 180.198 122.293C180.198 124.004 179.594 126.014 178.387 128.322C177.18 130.631 175.985 132.336 174.801 133.438C174.122 134.059 173.553 134.375 173.096 134.387C171.995 138.934 170.834 142.162 169.616 144.072ZM181.832 135.09C181.832 136.039 182.019 136.953 182.394 137.832C183.027 139.309 183.965 140.047 185.207 140.047C186.179 140.047 186.994 139.795 187.65 139.291C188.318 138.799 189.103 137.984 190.006 136.848C190.287 136.484 190.58 136.361 190.885 136.479C191.189 136.584 191.342 136.824 191.342 137.199C191.342 138.301 190.685 139.244 189.373 140.029C188.072 140.814 186.83 141.207 185.646 141.207C182.142 141.207 180.39 139.133 180.39 134.984C180.39 133.168 180.73 131.275 181.41 129.307L181.586 128.797C183.777 122.516 185.476 118.303 186.683 116.158C187.527 114.611 188.441 113.838 189.426 113.838C190.82 113.85 191.529 114.354 191.553 115.35C191.553 115.971 191.136 116.955 190.304 118.303C189.472 119.639 187.803 121.977 185.295 125.316C184.662 126.031 184.099 126.84 183.607 127.742C182.424 129.969 181.832 132.418 181.832 135.09ZM185.066 123.348C185.242 123.336 186.051 122.07 187.492 119.551C188.945 117.02 189.666 115.713 189.654 115.631C189.642 115.537 189.595 115.49 189.513 115.49C189.431 115.479 189.379 115.484 189.355 115.508C188.969 115.742 188.148 116.99 186.894 119.252C185.652 121.502 185.031 122.838 185.031 123.26C185.031 123.295 185.043 123.324 185.066 123.348ZM194.013 121.66C193.427 121.754 192.671 123.219 191.745 126.055C190.819 128.891 190.356 130.566 190.356 131.082C190.356 131.598 190.403 131.855 190.497 131.855C190.989 131.855 191.757 130.801 192.8 128.691C193.843 126.57 194.364 124.631 194.364 122.873C194.364 122.076 194.247 121.672 194.013 121.66ZM193.731 119.48C194.06 119.48 194.341 119.574 194.575 119.762C194.985 120.113 195.19 120.793 195.19 121.801C195.19 126.406 194.37 129.857 192.73 132.154L192.483 132.523C191.464 134 190.644 134.738 190.023 134.738C189.261 134.656 188.821 134.1 188.704 133.068C188.704 132.213 189.05 130.479 189.741 127.865C190.444 125.252 191.247 122.99 192.149 121.08C192.665 120.025 193.192 119.492 193.731 119.48ZM205.666 119.621C206.323 119.621 206.668 119.809 206.703 120.184C206.703 120.301 206.481 121.191 206.035 122.855C206.035 122.855 205.76 123.846 205.209 125.826C205.034 126.494 204.805 127.602 204.524 129.148C204.254 130.684 203.973 132.09 203.68 133.367C202.508 138.453 201.272 142.021 199.971 144.072C199.584 144.682 199.104 145.268 198.53 145.83C197.252 147.096 196.069 147.729 194.979 147.729C194.463 147.729 194.205 147.605 194.205 147.359C194.217 147.266 194.381 147.178 194.698 147.096C195.014 147.025 195.36 146.885 195.735 146.674C196.789 146.041 197.592 145.174 198.143 144.072C200.346 140.311 201.94 134.873 202.924 127.76C202.584 128.803 201.887 130.168 200.832 131.855C199.789 133.531 198.823 134.369 197.932 134.369C197.451 134.369 197.217 133.889 197.229 132.928C197.264 129.916 198.295 125.668 200.323 120.184C200.405 119.961 200.481 119.773 200.551 119.621C200.727 119.246 200.914 119.059 201.114 119.059C201.325 119.059 201.506 119.076 201.659 119.111C202.268 119.24 202.578 119.486 202.59 119.85C202.59 119.932 202.508 120.219 202.344 120.711L201.483 123.225C200.112 127.186 199.291 129.963 199.022 131.557C199.819 130.338 200.914 128.346 202.309 125.58C203.715 122.814 204.477 121.32 204.594 121.098C204.735 120.875 204.84 120.67 204.91 120.482L205.051 120.113C205.192 119.785 205.397 119.621 205.666 119.621ZM219.85 133.525C219.1 134.686 218.251 135.582 217.302 136.215C216.352 136.859 215.579 137.182 214.981 137.182C214.384 137.182 214.085 137.059 214.085 136.812C214.085 136.73 214.161 136.672 214.313 136.637C214.454 136.602 214.53 136.578 214.542 136.566C216.839 136.062 218.626 133.777 219.903 129.711C220.184 128.82 220.53 127.502 220.94 125.756L222.153 120.588H221.731C221.556 120.576 221.462 120.482 221.45 120.307C221.45 119.803 221.655 119.381 222.065 119.041C222.229 118.912 222.399 118.83 222.575 118.795C223.302 115.748 223.765 114.031 223.964 113.645C224.175 113.246 224.409 113.023 224.667 112.977C224.925 112.93 225.194 112.906 225.475 112.906C225.804 112.906 225.962 113.064 225.95 113.381C225.95 113.639 225.927 113.85 225.88 114.014C228.247 113.943 230.643 113.891 233.069 113.855C233.432 113.855 233.714 114.102 233.913 114.594C233.972 114.746 234.007 114.875 234.018 114.98C234.007 115.227 233.561 115.35 232.682 115.35C230.819 115.373 228.393 115.49 225.405 115.701L224.649 118.725C227.181 118.654 229.19 118.619 230.679 118.619C231.042 118.619 231.317 118.859 231.505 119.34C231.563 119.504 231.599 119.639 231.61 119.744C231.599 119.99 231.071 120.125 230.028 120.148C228.985 120.16 227.046 120.266 224.21 120.465L223.366 123.84C222.182 128.492 221.011 131.721 219.85 133.525ZM234.58 117.793C234.522 117.77 234.375 117.676 234.141 117.512C233.86 117.312 233.719 117.166 233.719 117.072C233.719 116.756 234.158 116.012 235.037 114.84C235.916 113.668 236.414 112.965 236.531 112.73C236.824 112.438 237.229 112.584 237.744 113.17C238.154 113.662 238.283 114.061 238.131 114.365C238.049 114.67 237.551 115.314 236.637 116.299C235.723 117.283 235.037 117.781 234.58 117.793ZM238.781 128.832C238.348 130.051 237.486 131.293 236.197 132.559C234.674 134.059 233.397 134.809 232.365 134.809C230.971 134.809 230.098 134.018 229.746 132.436C229.641 131.955 229.588 131.434 229.588 130.871C229.576 129.055 229.922 126.951 230.625 124.561C231.504 121.537 232.336 120.025 233.121 120.025C233.508 120.025 233.789 120.119 233.965 120.307C234.152 120.482 234.246 120.611 234.246 120.693C234.246 121.068 233.865 121.994 233.104 123.471C232.342 124.936 231.867 126.002 231.68 126.67C231.504 127.326 231.369 128.188 231.276 129.254C231.194 130.309 231.152 130.988 231.152 131.293C231.152 132.324 231.276 132.969 231.522 133.227C231.779 133.484 232.09 133.619 232.453 133.631C233.485 133.631 234.715 132.734 236.145 130.941C236.836 130.062 237.375 129.254 237.762 128.516C237.938 128.234 238.119 128.094 238.307 128.094C238.623 128.141 238.799 128.299 238.834 128.568C238.834 128.604 238.817 128.691 238.781 128.832ZM245.548 122.943L245.513 123.172L245.478 123.383C245.478 123.664 245.068 124.789 244.247 126.758C243.415 128.727 243.005 130.121 243.017 130.941C243.04 132.336 243.38 133.039 244.037 133.051C244.693 133.051 245.654 132.318 246.919 130.854C248.443 129.096 249.374 127.771 249.714 126.881C250.054 126.002 250.318 125.562 250.505 125.562C250.658 125.574 250.74 125.738 250.751 126.055C250.751 126.359 250.716 126.594 250.646 126.758L250.47 127.232C249.966 128.521 249.175 129.863 248.097 131.258C246.539 133.309 245.15 134.334 243.931 134.334C243.544 134.334 243.193 134.234 242.876 134.035C242.08 133.531 241.681 132.582 241.681 131.188C241.681 130.73 241.781 130.027 241.98 129.078C242.191 128.129 242.29 127.619 242.279 127.549C242.279 127.467 242.173 127.379 241.962 127.285C241.54 127.098 241.259 127.074 241.119 127.215C241.001 127.379 240.48 128.645 239.554 131.012C238.64 133.379 238.013 134.562 237.673 134.562C237.568 134.562 237.369 134.492 237.076 134.352C236.771 134.211 236.619 134.018 236.619 133.771C236.619 133.725 236.771 133.367 237.076 132.699L238.042 130.467C238.722 128.896 239.519 126.805 240.433 124.191L242.771 117.582C242.83 117.418 243.017 117.33 243.333 117.318L243.79 117.301C244.353 117.301 244.634 117.506 244.634 117.916C244.634 118.115 244.33 118.994 243.72 120.553C243.111 122.111 242.718 123.312 242.542 124.156L242.49 124.684C242.49 124.836 242.519 124.924 242.578 124.947C242.613 124.936 242.759 124.678 243.017 124.174L243.474 123.277C243.544 123.172 243.615 123.031 243.685 122.855C243.943 122.375 244.247 122.135 244.599 122.135C245.208 122.146 245.525 122.398 245.548 122.891V122.943ZM256.745 121.713C256.745 123.412 256.276 124.285 255.339 124.332C255.104 124.332 254.882 124.273 254.671 124.156C254.764 126.219 254.811 128.229 254.811 130.186C254.811 132.143 254.442 133.531 253.704 134.352C253.282 134.82 252.737 135.055 252.069 135.055C251.413 135.066 250.915 134.838 250.575 134.369C250.235 133.912 250.065 133.461 250.065 133.016C250.089 132.465 250.44 132.184 251.12 132.172C251.553 132.172 251.741 132.471 251.682 133.068C251.624 133.666 251.764 133.965 252.104 133.965C252.737 133.965 253.124 133.162 253.264 131.557C253.335 130.818 253.364 129.793 253.352 128.48C253.352 127.168 253.247 126.506 253.036 126.494C252.942 126.494 252.813 126.652 252.649 126.969C252.485 127.273 252.087 127.906 251.454 128.867C250.833 129.828 250.294 130.543 249.837 131.012C249.38 131.48 249.081 131.738 248.94 131.785C248.612 131.902 248.425 131.797 248.378 131.469C248.389 131.117 248.571 130.707 248.923 130.238C250.188 128.562 251.407 126.629 252.579 124.438C252.848 123.934 252.983 123.641 252.983 123.559V121.027C252.983 120.547 253.217 120.178 253.686 119.92C253.885 119.814 254.073 119.762 254.249 119.762C254.975 119.773 255.649 119.99 256.27 120.412C256.563 120.623 256.716 120.857 256.727 121.115C256.739 121.373 256.745 121.572 256.745 121.713ZM254.53 122.891C254.928 122.82 255.157 122.686 255.216 122.486C255.286 122.275 255.321 122.07 255.321 121.871C255.321 121.66 255.309 121.502 255.286 121.396C254.934 121.396 254.694 121.643 254.565 122.135C254.518 122.299 254.495 122.451 254.495 122.592C254.495 122.732 254.507 122.832 254.53 122.891ZM263.67 120.412L269.98 120.271C270.109 120.271 270.25 120.389 270.402 120.623C270.555 120.846 270.637 121.15 270.648 121.537C270.637 121.795 270.303 121.93 269.646 121.941C267.701 121.988 265.346 122.223 262.58 122.645C262.381 123.219 262.059 124.045 261.613 125.123C259.656 129.857 258.678 133.18 258.678 135.09C258.678 136.039 258.859 136.953 259.223 137.832C259.855 139.309 260.799 140.047 262.053 140.047C263.025 140.047 263.84 139.795 264.496 139.291C265.164 138.799 265.949 137.984 266.852 136.848C267.133 136.484 267.426 136.355 267.73 136.461C268.023 136.59 268.17 136.842 268.17 137.217C268.17 138.295 267.549 139.191 266.307 139.906C265.064 140.633 263.729 140.996 262.299 140.996C260.881 140.996 259.65 140.475 258.607 139.432C257.576 138.389 257.061 137 257.061 135.266C257.061 134.105 257.207 132.863 257.5 131.539C257.793 130.215 258.326 128.568 259.1 126.6C259.873 124.619 260.377 123.301 260.611 122.645C258.186 122.645 256.832 122.615 256.551 122.557C255.684 122.369 255.244 122 255.232 121.449C255.244 121.273 255.379 121.162 255.637 121.115L261.35 120.641L265.111 114.312C265.545 113.586 265.938 113.223 266.289 113.223C266.43 113.223 266.594 113.246 266.781 113.293C267.473 113.445 267.818 113.697 267.818 114.049C267.818 114.389 267.467 114.916 266.764 115.631C266.061 116.346 265.627 116.803 265.463 117.002C264.912 117.682 264.314 118.818 263.67 120.412ZM270.366 130.854C270.437 131.064 270.519 131.24 270.613 131.381C270.718 131.51 270.941 131.574 271.281 131.574C271.62 131.574 271.849 131.592 271.966 131.627C272.493 131.768 272.757 132.154 272.757 132.787C272.757 132.998 272.71 133.191 272.616 133.367C272.382 133.824 272.025 134.053 271.544 134.053C271.075 134.053 270.665 133.924 270.314 133.666C269.962 133.408 269.792 133.016 269.804 132.488C269.804 132.312 269.81 132.189 269.822 132.119C269.833 132.049 270.015 131.627 270.366 130.854ZM287.381 130.906L287.275 132.119C287.275 132.576 287.433 132.816 287.75 132.84C288.746 132.84 289.461 131.176 289.894 127.848L291.635 114.436C291.67 114.201 291.758 113.967 291.898 113.732C292.25 113.17 292.707 112.889 293.269 112.889C293.832 112.889 294.412 113.111 295.01 113.557C295.607 114.002 295.906 114.594 295.906 115.332C295.906 116.059 295.765 116.814 295.484 117.6C295.027 118.854 294.447 119.48 293.744 119.48C293.357 119.48 293.076 119.352 292.9 119.094L291.599 127.918C291.377 129.336 291.055 130.578 290.633 131.645C289.859 133.531 288.91 134.475 287.785 134.475C287.246 134.475 286.719 134.246 286.203 133.789C285.699 133.32 285.447 132.582 285.447 131.574C285.447 130.555 285.834 130.039 286.607 130.027C287.099 130.039 287.357 130.332 287.381 130.906ZM293.041 117.266C293.791 117.184 294.183 116.51 294.219 115.244C293.996 115.268 293.732 115.408 293.428 115.666C293.135 115.912 292.988 116.322 292.988 116.896C292.988 117.025 293.006 117.148 293.041 117.266ZM300.933 120.412L307.243 120.271C307.372 120.271 307.513 120.389 307.665 120.623C307.818 120.846 307.9 121.15 307.911 121.537C307.9 121.795 307.566 121.93 306.909 121.941C304.964 121.988 302.609 122.223 299.843 122.645C299.644 123.219 299.321 124.045 298.876 125.123C296.919 129.857 295.941 133.18 295.941 135.09C295.941 136.039 296.122 136.953 296.485 137.832C297.118 139.309 298.062 140.047 299.316 140.047C300.288 140.047 301.103 139.795 301.759 139.291C302.427 138.799 303.212 137.984 304.114 136.848C304.396 136.484 304.689 136.355 304.993 136.461C305.286 136.59 305.433 136.842 305.433 137.217C305.433 138.295 304.812 139.191 303.569 139.906C302.327 140.633 300.991 140.996 299.562 140.996C298.144 140.996 296.913 140.475 295.87 139.432C294.839 138.389 294.323 137 294.323 135.266C294.323 134.105 294.47 132.863 294.763 131.539C295.056 130.215 295.589 128.568 296.362 126.6C297.136 124.619 297.64 123.301 297.874 122.645C295.448 122.645 294.095 122.615 293.814 122.557C292.946 122.369 292.507 122 292.495 121.449C292.507 121.273 292.642 121.162 292.9 121.115L298.612 120.641L302.374 114.312C302.808 113.586 303.2 113.223 303.552 113.223C303.693 113.223 303.857 113.246 304.044 113.293C304.735 113.445 305.081 113.697 305.081 114.049C305.081 114.389 304.73 114.916 304.026 115.631C303.323 116.346 302.89 116.803 302.726 117.002C302.175 117.682 301.577 118.818 300.933 120.412ZM308.631 125.387C308.866 125.352 309.37 124.848 310.143 123.875C310.916 122.902 311.303 122.141 311.303 121.59C311.303 121.508 311.274 121.414 311.215 121.309C310.981 121.543 310.489 122.211 309.739 123.312C309 124.414 308.631 125.105 308.631 125.387ZM315.627 128.006C316.213 127.373 316.541 127.262 316.612 127.672C316.612 127.824 316.518 128.076 316.33 128.428C315.756 129.494 314.877 130.625 313.694 131.82C311.819 133.719 310.161 134.668 308.719 134.668C308.039 134.668 307.459 134.475 306.979 134.088C306.077 133.35 305.625 132.066 305.625 130.238C305.625 129.195 305.942 127.73 306.575 125.844C307.219 123.945 308.204 122.229 309.528 120.693C310.114 119.943 310.723 119.568 311.356 119.568C311.661 119.568 311.977 119.633 312.305 119.762C313.079 120.078 313.465 120.588 313.465 121.291C313.465 121.396 313.43 121.566 313.36 121.801C312.879 122.75 312.106 123.846 311.039 125.088C309.973 126.33 308.889 127.32 307.788 128.059C307.413 129.418 307.225 130.479 307.225 131.24C307.225 132.002 307.243 132.488 307.278 132.699C307.383 133.191 307.776 133.438 308.455 133.438C309.135 133.438 309.92 133.127 310.811 132.506C311.702 131.873 312.651 131.041 313.659 130.01C314.666 128.979 315.235 128.398 315.364 128.27C315.504 128.141 315.592 128.053 315.627 128.006ZM323.871 122.521C321.996 122.838 320.361 124.068 318.966 126.213C317.607 128.299 316.892 130.361 316.822 132.4C319.506 128.861 321.855 125.568 323.871 122.521ZM323.062 121.027L324.099 121.168C324.263 121.168 324.433 121.074 324.609 120.887C324.797 120.699 325.031 120.605 325.312 120.605C325.605 120.605 325.834 120.682 325.998 120.834C326.174 120.986 326.261 121.121 326.261 121.238C326.261 121.344 326.203 121.525 326.086 121.783C325.968 122.041 325.898 122.211 325.875 122.293C324.316 127.18 323.537 130.297 323.537 131.645C323.549 132.113 323.654 132.354 323.853 132.365C324.568 132.365 325.687 131.428 327.211 129.553C328.23 128.299 328.886 127.379 329.179 126.793C329.484 126.207 329.724 125.896 329.9 125.861C329.935 125.861 329.965 125.855 329.988 125.844C330.199 125.867 330.31 125.99 330.322 126.213C330.322 126.635 329.836 127.584 328.863 129.061C326.789 132.225 324.996 133.807 323.484 133.807C322.394 133.807 321.849 133.045 321.849 131.521C321.849 130.795 321.996 129.893 322.289 128.814C322.582 127.725 322.758 127.045 322.816 126.775C322.547 127.127 321.644 128.404 320.109 130.607C318.574 132.811 317.472 134.111 316.804 134.51C316.593 134.627 316.412 134.691 316.259 134.703C315.591 134.703 315.105 134.439 314.8 133.912C314.66 133.654 314.59 133.285 314.59 132.805C314.578 132.312 314.935 131.188 315.662 129.43C316.834 126.594 318.164 124.408 319.652 122.873C320.824 121.678 321.961 121.062 323.062 121.027ZM345.017 110.973C342.837 114.559 340.616 119.721 338.354 126.459C338.354 126.459 338.114 127.139 337.634 128.498C336.38 131.955 335.747 134.229 335.735 135.318C335.759 135.506 335.946 135.764 336.298 136.092C336.638 136.361 336.808 136.619 336.808 136.865C336.784 137.533 336.532 137.902 336.052 137.973C335.759 137.973 335.495 137.867 335.261 137.656C334.792 137.223 334.558 136.52 334.558 135.547C334.558 133.742 334.938 131.762 335.7 129.605C336.474 127.438 336.931 126.09 337.071 125.562L335.261 127.936C333.644 130.057 332.173 131.762 330.849 133.051C330.743 133.109 330.438 133.35 329.935 133.771C329.442 134.182 328.845 134.387 328.142 134.387C327.942 134.387 327.761 134.352 327.597 134.281C327.022 134.047 326.735 133.52 326.735 132.699C326.735 132.277 327.122 131.363 327.895 129.957C328.669 128.551 329.993 126.723 331.868 124.473C333.755 122.223 335.038 120.957 335.718 120.676C336.409 120.395 337.142 120.254 337.915 120.254C338.22 120.043 338.542 119.738 338.882 119.34C339.222 118.941 339.626 118.25 340.095 117.266L341.009 115.332C341.208 114.934 341.56 114.184 342.063 113.082C342.567 111.969 342.966 111.119 343.259 110.533C344.466 108.119 345.468 106.912 346.265 106.912C347.05 106.924 347.454 107.311 347.478 108.072C347.478 108.646 347.237 109.273 346.757 109.953C346.276 110.633 345.696 110.973 345.017 110.973ZM336.368 123.119C336.485 122.768 336.544 122.533 336.544 122.416C336.544 122.287 336.52 122.211 336.474 122.188C336.392 122.188 336.028 122.498 335.384 123.119C332.829 125.51 330.743 128.094 329.126 130.871C328.751 131.527 328.563 131.943 328.563 132.119C328.563 132.295 328.604 132.395 328.686 132.418C328.792 132.418 328.956 132.342 329.179 132.189C330.011 131.627 331.288 130.344 333.011 128.34C334.733 126.336 335.853 124.596 336.368 123.119ZM342.608 133.525C341.858 134.686 341.008 135.582 340.059 136.215C339.11 136.859 338.336 137.182 337.739 137.182C337.141 137.182 336.842 137.059 336.842 136.812C336.842 136.73 336.918 136.672 337.071 136.637C337.211 136.602 337.287 136.578 337.299 136.566C339.596 136.062 341.383 133.777 342.66 129.711C342.942 128.82 343.287 127.502 343.698 125.756L344.91 120.588H344.489C344.313 120.576 344.219 120.482 344.207 120.307C344.207 119.803 344.412 119.381 344.823 119.041C344.987 118.912 345.156 118.83 345.332 118.795C346.059 115.748 346.522 114.031 346.721 113.645C346.932 113.246 347.166 113.023 347.424 112.977C347.682 112.93 347.951 112.906 348.233 112.906C348.561 112.906 348.719 113.064 348.707 113.381C348.707 113.639 348.684 113.85 348.637 114.014C351.004 113.943 353.401 113.891 355.826 113.855C356.19 113.855 356.471 114.102 356.67 114.594C356.729 114.746 356.764 114.875 356.776 114.98C356.764 115.227 356.319 115.35 355.44 115.35C353.576 115.373 351.151 115.49 348.162 115.701L347.406 118.725C349.938 118.654 351.948 118.619 353.436 118.619C353.799 118.619 354.074 118.859 354.262 119.34C354.321 119.504 354.356 119.639 354.367 119.744C354.356 119.99 353.828 120.125 352.785 120.148C351.742 120.16 349.803 120.266 346.967 120.465L346.123 123.84C344.94 128.492 343.768 131.721 342.608 133.525ZM360.132 122.521C358.257 122.838 356.623 124.068 355.228 126.213C353.869 128.299 353.154 130.361 353.084 132.4C355.767 128.861 358.117 125.568 360.132 122.521ZM359.324 121.027L360.361 121.168C360.525 121.168 360.695 121.074 360.871 120.887C361.058 120.699 361.293 120.605 361.574 120.605C361.867 120.605 362.095 120.682 362.259 120.834C362.435 120.986 362.523 121.121 362.523 121.238C362.523 121.344 362.464 121.525 362.347 121.783C362.23 122.041 362.16 122.211 362.136 122.293C360.578 127.18 359.798 130.297 359.798 131.645C359.81 132.113 359.916 132.354 360.115 132.365C360.83 132.365 361.949 131.428 363.472 129.553C364.492 128.299 365.148 127.379 365.441 126.793C365.746 126.207 365.986 125.896 366.162 125.861C366.197 125.861 366.226 125.855 366.25 125.844C366.46 125.867 366.572 125.99 366.584 126.213C366.584 126.635 366.097 127.584 365.125 129.061C363.05 132.225 361.257 133.807 359.746 133.807C358.656 133.807 358.111 133.045 358.111 131.521C358.111 130.795 358.257 129.893 358.55 128.814C358.843 127.725 359.019 127.045 359.078 126.775C358.808 127.127 357.906 128.404 356.371 130.607C354.835 132.811 353.734 134.111 353.066 134.51C352.855 134.627 352.673 134.691 352.521 134.703C351.853 134.703 351.367 134.439 351.062 133.912C350.921 133.654 350.851 133.285 350.851 132.805C350.839 132.312 351.197 131.188 351.923 129.43C353.095 126.594 354.425 124.408 355.914 122.873C357.085 121.678 358.222 121.062 359.324 121.027ZM371.856 121.713C371.856 123.412 371.388 124.285 370.45 124.332C370.216 124.332 369.993 124.273 369.782 124.156C369.876 126.219 369.923 128.229 369.923 130.186C369.923 132.143 369.554 133.531 368.815 134.352C368.393 134.82 367.848 135.055 367.18 135.055C366.524 135.066 366.026 134.838 365.686 134.369C365.346 133.912 365.177 133.461 365.177 133.016C365.2 132.465 365.552 132.184 366.231 132.172C366.665 132.172 366.852 132.471 366.794 133.068C366.735 133.666 366.876 133.965 367.216 133.965C367.848 133.965 368.235 133.162 368.376 131.557C368.446 130.818 368.475 129.793 368.464 128.48C368.464 127.168 368.358 126.506 368.147 126.494C368.054 126.494 367.925 126.652 367.761 126.969C367.596 127.273 367.198 127.906 366.565 128.867C365.944 129.828 365.405 130.543 364.948 131.012C364.491 131.48 364.192 131.738 364.052 131.785C363.723 131.902 363.536 131.797 363.489 131.469C363.501 131.117 363.682 130.707 364.034 130.238C365.3 128.562 366.518 126.629 367.69 124.438C367.96 123.934 368.095 123.641 368.095 123.559V121.027C368.095 120.547 368.329 120.178 368.798 119.92C368.997 119.814 369.184 119.762 369.36 119.762C370.087 119.773 370.761 119.99 371.382 120.412C371.675 120.623 371.827 120.857 371.839 121.115C371.85 121.373 371.856 121.572 371.856 121.713ZM369.641 122.891C370.04 122.82 370.268 122.686 370.327 122.486C370.397 122.275 370.432 122.07 370.432 121.871C370.432 121.66 370.421 121.502 370.397 121.396C370.046 121.396 369.805 121.643 369.677 122.135C369.63 122.299 369.606 122.451 369.606 122.592C369.606 122.732 369.618 122.832 369.641 122.891ZM378.781 120.412L385.092 120.271C385.221 120.271 385.361 120.389 385.514 120.623C385.666 120.846 385.748 121.15 385.76 121.537C385.748 121.795 385.414 121.93 384.758 121.941C382.813 121.988 380.457 122.223 377.691 122.645C377.492 123.219 377.17 124.045 376.725 125.123C374.768 129.857 373.789 133.18 373.789 135.09C373.789 136.039 373.971 136.953 374.334 137.832C374.967 139.309 375.91 140.047 377.164 140.047C378.137 140.047 378.951 139.795 379.608 139.291C380.275 138.799 381.061 137.984 381.963 136.848C382.244 136.484 382.537 136.355 382.842 136.461C383.135 136.59 383.281 136.842 383.281 137.217C383.281 138.295 382.66 139.191 381.418 139.906C380.176 140.633 378.84 140.996 377.41 140.996C375.992 140.996 374.762 140.475 373.719 139.432C372.688 138.389 372.172 137 372.172 135.266C372.172 134.105 372.318 132.863 372.611 131.539C372.904 130.215 373.438 128.568 374.211 126.6C374.984 124.619 375.488 123.301 375.723 122.645C373.297 122.645 371.943 122.615 371.662 122.557C370.795 122.369 370.356 122 370.344 121.449C370.356 121.273 370.49 121.162 370.748 121.115L376.461 120.641L380.223 114.312C380.656 113.586 381.049 113.223 381.4 113.223C381.541 113.223 381.705 113.246 381.893 113.293C382.584 113.445 382.93 113.697 382.93 114.049C382.93 114.389 382.578 114.916 381.875 115.631C381.172 116.346 380.738 116.803 380.574 117.002C380.024 117.682 379.426 118.818 378.781 120.412ZM385.478 130.854C385.548 131.064 385.63 131.24 385.724 131.381C385.829 131.51 386.052 131.574 386.392 131.574C386.732 131.574 386.96 131.592 387.078 131.627C387.605 131.768 387.869 132.154 387.869 132.787C387.869 132.998 387.822 133.191 387.728 133.367C387.494 133.824 387.136 134.053 386.656 134.053C386.187 134.053 385.777 133.924 385.425 133.666C385.074 133.408 384.904 133.016 384.915 132.488C384.915 132.312 384.921 132.189 384.933 132.119C384.945 132.049 385.126 131.627 385.478 130.854Z" fill="#BA9AD3"/>
<path d="M7.06641 116.266L6.27539 115.879C6.48633 114.555 7.10742 113.693 8.13867 113.295C8.4668 113.178 8.8125 113.119 9.17578 113.119C10.1836 113.119 11.0684 113.5 11.8301 114.262C12.5918 115.012 12.9727 115.855 12.9727 116.793C12.9844 118.012 12.7266 119.418 12.1992 121.012C10.9336 124.797 8.69531 128.477 5.48438 132.051L4.27148 133.334C3.81445 133.744 3.50391 133.961 3.33984 133.984C2.83594 133.973 2.34961 133.486 1.88086 132.525C2.0332 132.092 2.79492 129.654 4.16602 125.213C5.54883 120.771 6.51562 117.789 7.06641 116.266ZM8.63086 115.088C8.63086 116.061 8.44336 117.162 8.06836 118.393C7.70508 119.611 7.44141 120.484 7.27734 121.012C7.125 121.527 6.67383 122.887 5.92383 125.09C5.18555 127.293 4.63477 129.115 4.27148 130.557C5.17383 129.607 6.05859 128.471 6.92578 127.146C6.97266 127.076 7.01367 127.018 7.04883 126.971C9.7207 122.834 11.0566 118.949 11.0566 115.316C11.0566 114.906 10.9453 114.666 10.7227 114.596C10.6523 114.584 10.582 114.578 10.5117 114.578C9.77344 114.59 9.14648 114.76 8.63086 115.088ZM15.7669 124.387C16.0013 124.352 16.5052 123.848 17.2786 122.875C18.052 121.902 18.4388 121.141 18.4388 120.59C18.4388 120.508 18.4095 120.414 18.3509 120.309C18.1165 120.543 17.6243 121.211 16.8743 122.312C16.136 123.414 15.7669 124.105 15.7669 124.387ZM22.763 127.006C23.3489 126.373 23.677 126.262 23.7473 126.672C23.7473 126.824 23.6536 127.076 23.4661 127.428C22.8919 128.494 22.013 129.625 20.8294 130.82C18.9544 132.719 17.2962 133.668 15.8548 133.668C15.1751 133.668 14.595 133.475 14.1145 133.088C13.2122 132.35 12.761 131.066 12.761 129.238C12.761 128.195 13.0774 126.73 13.7102 124.844C14.3548 122.945 15.3391 121.229 16.6634 119.693C17.2493 118.943 17.8587 118.568 18.4915 118.568C18.7962 118.568 19.1126 118.633 19.4407 118.762C20.2141 119.078 20.6009 119.588 20.6009 120.291C20.6009 120.396 20.5657 120.566 20.4954 120.801C20.0149 121.75 19.2415 122.846 18.1751 124.088C17.1087 125.33 16.0247 126.32 14.9231 127.059C14.5481 128.418 14.3606 129.479 14.3606 130.24C14.3606 131.002 14.3782 131.488 14.4134 131.699C14.5188 132.191 14.9114 132.438 15.5911 132.438C16.2708 132.438 17.0559 132.127 17.9466 131.506C18.8372 130.873 19.7864 130.041 20.7942 129.01C21.802 127.979 22.3704 127.398 22.4993 127.27C22.6399 127.141 22.7278 127.053 22.763 127.006ZM29.565 120.713C29.565 122.412 29.0963 123.285 28.1588 123.332C27.9244 123.332 27.7017 123.273 27.4908 123.156C27.5845 125.219 27.6314 127.229 27.6314 129.186C27.6314 131.143 27.2623 132.531 26.524 133.352C26.1021 133.82 25.5572 134.055 24.8892 134.055C24.233 134.066 23.7349 133.838 23.3951 133.369C23.0552 132.912 22.8853 132.461 22.8853 132.016C22.9088 131.465 23.2603 131.184 23.94 131.172C24.3736 131.172 24.5611 131.471 24.5025 132.068C24.4439 132.666 24.5845 132.965 24.9244 132.965C25.5572 132.965 25.9439 132.162 26.0845 130.557C26.1548 129.818 26.1841 128.793 26.1724 127.48C26.1724 126.168 26.067 125.506 25.856 125.494C25.7623 125.494 25.6334 125.652 25.4693 125.969C25.3052 126.273 24.9068 126.906 24.274 127.867C23.6529 128.828 23.1138 129.543 22.6568 130.012C22.1998 130.48 21.9009 130.738 21.7603 130.785C21.4322 130.902 21.2447 130.797 21.1978 130.469C21.2095 130.117 21.3912 129.707 21.7427 129.238C23.0084 127.562 24.2271 125.629 25.399 123.438C25.6685 122.934 25.8033 122.641 25.8033 122.559V120.027C25.8033 119.547 26.0377 119.178 26.5064 118.92C26.7056 118.814 26.8931 118.762 27.0689 118.762C27.7955 118.773 28.4693 118.99 29.0904 119.412C29.3834 119.623 29.5357 119.857 29.5474 120.115C29.5591 120.373 29.565 120.572 29.565 120.713ZM27.3502 121.891C27.7486 121.82 27.9771 121.686 28.0357 121.486C28.106 121.275 28.1412 121.07 28.1412 120.871C28.1412 120.66 28.1295 120.502 28.106 120.396C27.7545 120.396 27.5142 120.643 27.3853 121.135C27.3384 121.299 27.315 121.451 27.315 121.592C27.315 121.732 27.3267 121.832 27.3502 121.891ZM36.1737 116.793C36.1151 116.77 35.9686 116.676 35.7342 116.512C35.453 116.312 35.3123 116.166 35.3123 116.072C35.3123 115.756 35.7518 115.012 36.6307 113.84C37.5096 112.668 38.0077 111.965 38.1248 111.73C38.4178 111.438 38.8221 111.584 39.3377 112.17C39.7479 112.662 39.8768 113.061 39.7245 113.365C39.6424 113.67 39.1444 114.314 38.2303 115.299C37.3162 116.283 36.6307 116.781 36.1737 116.793ZM40.3748 127.832C39.9412 129.051 39.0799 130.293 37.7909 131.559C36.2674 133.059 34.9901 133.809 33.9588 133.809C32.5643 133.809 31.6912 133.018 31.3397 131.436C31.2342 130.955 31.1815 130.434 31.1815 129.871C31.1698 128.055 31.5155 125.951 32.2186 123.561C33.0975 120.537 33.9295 119.025 34.7147 119.025C35.1014 119.025 35.3827 119.119 35.5584 119.307C35.7459 119.482 35.8397 119.611 35.8397 119.693C35.8397 120.068 35.4588 120.994 34.6971 122.471C33.9354 123.936 33.4608 125.002 33.2733 125.67C33.0975 126.326 32.9627 127.188 32.869 128.254C32.787 129.309 32.7459 129.988 32.7459 130.293C32.7459 131.324 32.869 131.969 33.1151 132.227C33.3729 132.484 33.6834 132.619 34.0467 132.631C35.078 132.631 36.3084 131.734 37.7381 129.941C38.4295 129.062 38.9686 128.254 39.3553 127.516C39.5311 127.234 39.7127 127.094 39.9002 127.094C40.2166 127.141 40.3924 127.299 40.4276 127.568C40.4276 127.604 40.41 127.691 40.3748 127.832ZM50.8859 122.26C50.7101 121.861 50.4816 121.662 50.2003 121.662C50.1183 121.662 50.0538 121.674 50.007 121.697C48.9874 122.096 47.5695 122.898 45.753 124.105C43.9484 125.312 43.0167 126.186 42.9581 126.725C42.9698 126.83 43.0402 126.895 43.1691 126.918C43.5206 126.918 44.1886 126.637 45.173 126.074C46.1691 125.5 46.714 125.189 46.8077 125.143C46.9015 125.107 47.0655 125.02 47.2999 124.879L47.8097 124.58C49.7667 123.49 50.7921 122.717 50.8859 122.26ZM47.6691 128.271V128.219C47.7628 127.633 47.8097 127.316 47.8097 127.27C47.798 127.082 47.628 126.988 47.2999 126.988C46.9718 126.977 46.6085 127.059 46.2101 127.234C45.8234 127.41 44.962 127.879 43.6261 128.641C42.2902 129.391 41.1769 129.766 40.2863 129.766C40.005 129.766 39.6593 129.637 39.2491 129.379C38.4523 128.863 38.4347 128.143 39.1964 127.217C39.7823 126.549 40.7726 125.699 42.1671 124.668L45.3663 122.277C47.6515 120.59 49.1515 119.752 49.8663 119.764C50.5812 119.775 51.2843 120.191 51.9757 121.012C51.6827 121.176 51.4894 121.598 51.3956 122.277C51.4073 122.266 51.4777 122.26 51.6066 122.26C51.7355 122.26 51.8585 122.295 51.9757 122.365C52.1046 122.424 52.1691 122.693 52.1691 123.174C52.1691 123.643 52.1222 123.883 52.0284 123.895C51.8644 123.895 51.5304 124.123 51.0265 124.58C50.5226 125.025 50.1476 125.441 49.9015 125.828C49.6788 127.645 49.2921 129.777 48.7413 132.227C47.5695 137.418 46.3273 141.039 45.0148 143.09C44.6163 143.699 44.13 144.291 43.5558 144.865C42.2667 146.107 41.0831 146.729 40.005 146.729C39.4894 146.729 39.2316 146.605 39.2316 146.359C39.2433 146.266 39.4073 146.178 39.7238 146.096C40.0519 146.025 40.4152 145.873 40.8136 145.639C41.6456 145.135 42.3253 144.461 42.8527 143.617C43.8253 142.07 44.6573 140.178 45.3488 137.939C46.0519 135.701 46.8253 132.479 47.6691 128.271ZM65.8617 126.426C65.8617 127.012 65.1937 128.09 63.8578 129.66C62.5219 131.23 61.5199 132.268 60.852 132.771C60.1957 133.264 59.5336 133.51 58.8656 133.51C57.6234 133.498 57.0023 132.514 57.0023 130.557C57.0023 129.631 57.1898 128.184 57.5648 126.215C57.9398 124.234 58.1391 123.156 58.1625 122.98C56.9203 123.391 55.7309 124.949 54.5941 127.656C54.3598 128.23 53.9848 129.209 53.4691 130.592C52.9652 131.963 52.6078 132.777 52.3969 133.035C52.1391 133.34 51.7992 133.492 51.3773 133.492C50.9555 133.492 50.7387 133.34 50.727 133.035C50.727 132.473 52.6078 127.809 56.3695 119.043C56.9555 117.66 57.2953 116.887 57.3891 116.723C57.5883 116.336 58.0043 116.354 58.6371 116.775C58.8246 116.904 58.9184 117.033 58.9184 117.162C58.9301 117.291 58.8422 117.496 58.6547 117.777C58.2211 118.457 57.8344 119.248 57.4945 120.15L56.8266 121.891L57.3891 121.205C57.893 120.584 58.2973 120.115 58.602 119.799C58.9066 119.471 59.1586 119.289 59.3578 119.254C59.5687 119.207 59.7855 119.184 60.0082 119.184C60.4887 119.219 60.7406 119.477 60.7641 119.957C60.7641 120.191 60.682 120.508 60.518 120.906C59.7797 122.605 59.2113 125.178 58.8129 128.623C58.7074 129.607 58.6547 130.475 58.6547 131.225C58.6664 131.963 58.848 132.338 59.1996 132.35C59.6918 132.35 60.5883 131.588 61.8891 130.064C63.1898 128.529 64.1273 127.258 64.7016 126.25C64.8539 126.004 65.0707 125.875 65.352 125.863C65.6449 125.934 65.8148 126.121 65.8617 126.426ZM74.6318 129.906L74.5263 131.119C74.5263 131.576 74.6845 131.816 75.0009 131.84C75.997 131.84 76.7119 130.176 77.1455 126.848L78.8857 113.436C78.9209 113.201 79.0088 112.967 79.1494 112.732C79.5009 112.17 79.958 111.889 80.5205 111.889C81.083 111.889 81.663 112.111 82.2607 112.557C82.8584 113.002 83.1572 113.594 83.1572 114.332C83.1572 115.059 83.0166 115.814 82.7353 116.6C82.2783 117.854 81.6982 118.48 80.9951 118.48C80.6084 118.48 80.3271 118.352 80.1513 118.094L78.8505 126.918C78.6279 128.336 78.3056 129.578 77.8838 130.645C77.1103 132.531 76.1611 133.475 75.0361 133.475C74.497 133.475 73.9697 133.246 73.4541 132.789C72.9502 132.32 72.6982 131.582 72.6982 130.574C72.6982 129.555 73.0849 129.039 73.8584 129.027C74.3505 129.039 74.6084 129.332 74.6318 129.906ZM80.292 116.266C81.042 116.184 81.4345 115.51 81.4697 114.244C81.247 114.268 80.9834 114.408 80.6787 114.666C80.3857 114.912 80.2392 115.322 80.2392 115.896C80.2392 116.025 80.2568 116.148 80.292 116.266ZM87.4983 120.203L87.7444 120.168C88.3538 120.18 88.6526 120.35 88.6409 120.678C88.6291 120.818 88.594 120.965 88.5354 121.117C88.4768 121.258 88.2776 121.691 87.9377 122.418C87.5159 123.32 87.3459 123.941 87.428 124.281V124.387L88.7288 122.418C89.5725 121.141 90.1995 120.215 90.6096 119.641C90.7268 119.488 90.926 119.412 91.2073 119.412C91.4885 119.412 91.717 119.488 91.8928 119.641C92.0803 119.781 92.1799 119.893 92.1916 119.975L92.0862 120.238C89.9768 125.359 88.9221 129.016 88.9221 131.207C88.9221 132.121 89.2209 132.666 89.8186 132.842C90.3694 132.994 90.9319 132.83 91.5061 132.35C93.1116 131.061 94.5471 129.391 95.8127 127.34L96.1467 126.777C96.2639 126.59 96.4455 126.479 96.6916 126.443C97.008 126.443 97.1663 126.613 97.1663 126.953C97.1663 127.562 96.4924 128.658 95.1448 130.24C93.8088 131.811 92.8127 132.842 92.1565 133.334C91.512 133.826 90.803 134.072 90.0295 134.072C89.2678 134.072 88.6409 133.615 88.1487 132.701C87.8088 132.068 87.6389 131.336 87.6389 130.504C87.6389 129.672 87.8323 128.564 88.219 127.182C88.6174 125.787 88.8342 124.949 88.8694 124.668C88.9045 124.387 88.9163 124.229 88.9045 124.193C88.3538 124.908 87.7209 125.91 87.0061 127.199L85.5998 129.678C85.3889 130.018 85.178 130.188 84.967 130.188C84.3811 130.188 84.0881 129.83 84.0881 129.115C84.0881 128.787 84.3166 128.16 84.7737 127.234C85.2307 126.309 85.4592 125.641 85.4592 125.23C85.2952 125.5 85.0139 126.01 84.6155 126.76C83.7483 128.389 82.6057 129.912 81.1877 131.33C80.6487 131.857 80.1448 132.174 79.676 132.279C78.9846 132.197 78.7854 132.016 79.0784 131.734C79.8752 130.961 80.5198 130.27 81.012 129.66C82.0432 128.383 82.7815 126.918 83.2268 125.266C83.6838 123.602 83.9416 122.629 84.0002 122.348C84.0588 122.066 84.1702 121.609 84.3342 120.977L84.6858 119.729C84.8616 118.979 85.0608 118.504 85.2834 118.305C85.5178 118.105 85.7873 118.006 86.092 118.006C86.6663 118.006 86.9534 118.193 86.9534 118.568C86.9534 118.92 86.508 120.01 85.6174 121.838C84.7268 123.654 84.1819 124.844 83.9827 125.406C84.053 125.324 84.258 125.014 84.5979 124.475C84.9377 123.936 85.137 123.619 85.1955 123.525C85.2659 123.432 85.3948 123.221 85.5823 122.893C86.5784 121.1 87.217 120.203 87.4983 120.203ZM104.636 121.521C102.761 121.838 101.126 123.068 99.732 125.213C98.3726 127.299 97.6577 129.361 97.5874 131.4C100.271 127.861 102.621 124.568 104.636 121.521ZM103.828 120.027L104.865 120.168C105.029 120.168 105.199 120.074 105.375 119.887C105.562 119.699 105.796 119.605 106.078 119.605C106.371 119.605 106.599 119.682 106.763 119.834C106.939 119.986 107.027 120.121 107.027 120.238C107.027 120.344 106.968 120.525 106.851 120.783C106.734 121.041 106.664 121.211 106.64 121.293C105.082 126.18 104.302 129.297 104.302 130.645C104.314 131.113 104.419 131.354 104.619 131.365C105.334 131.365 106.453 130.428 107.976 128.553C108.996 127.299 109.652 126.379 109.945 125.793C110.25 125.207 110.49 124.896 110.666 124.861C110.701 124.861 110.73 124.855 110.753 124.844C110.964 124.867 111.076 124.99 111.087 125.213C111.087 125.635 110.601 126.584 109.628 128.061C107.554 131.225 105.761 132.807 104.25 132.807C103.16 132.807 102.615 132.045 102.615 130.521C102.615 129.795 102.761 128.893 103.054 127.814C103.347 126.725 103.523 126.045 103.582 125.775C103.312 126.127 102.41 127.404 100.875 129.607C99.3394 131.811 98.2378 133.111 97.5698 133.51C97.3589 133.627 97.1773 133.691 97.0249 133.703C96.357 133.703 95.8706 133.439 95.5659 132.912C95.4253 132.654 95.355 132.285 95.355 131.805C95.3433 131.312 95.7007 130.188 96.4273 128.43C97.5991 125.594 98.9292 123.408 100.418 121.873C101.589 120.678 102.726 120.062 103.828 120.027ZM116.641 121.943L116.606 122.172L116.571 122.383C116.571 122.664 116.161 123.789 115.341 125.758C114.509 127.727 114.098 129.121 114.11 129.941C114.134 131.336 114.473 132.039 115.13 132.051C115.786 132.051 116.747 131.318 118.012 129.854C119.536 128.096 120.468 126.771 120.807 125.881C121.147 125.002 121.411 124.562 121.598 124.562C121.751 124.574 121.833 124.738 121.845 125.055C121.845 125.359 121.809 125.594 121.739 125.758L121.563 126.232C121.059 127.521 120.268 128.863 119.19 130.258C117.632 132.309 116.243 133.334 115.024 133.334C114.637 133.334 114.286 133.234 113.97 133.035C113.173 132.531 112.774 131.582 112.774 130.188C112.774 129.73 112.874 129.027 113.073 128.078C113.284 127.129 113.384 126.619 113.372 126.549C113.372 126.467 113.266 126.379 113.055 126.285C112.634 126.098 112.352 126.074 112.212 126.215C112.095 126.379 111.573 127.645 110.647 130.012C109.733 132.379 109.106 133.562 108.766 133.562C108.661 133.562 108.462 133.492 108.169 133.352C107.864 133.211 107.712 133.018 107.712 132.771C107.712 132.725 107.864 132.367 108.169 131.699L109.136 129.467C109.815 127.896 110.612 125.805 111.526 123.191L113.864 116.582C113.923 116.418 114.11 116.33 114.427 116.318L114.884 116.301C115.446 116.301 115.727 116.506 115.727 116.916C115.727 117.115 115.423 117.994 114.813 119.553C114.204 121.111 113.811 122.312 113.636 123.156L113.583 123.684C113.583 123.836 113.612 123.924 113.671 123.947C113.706 123.936 113.852 123.678 114.11 123.174L114.567 122.277C114.637 122.172 114.708 122.031 114.778 121.855C115.036 121.375 115.341 121.135 115.692 121.135C116.302 121.146 116.618 121.398 116.641 121.891V121.943ZM126.801 119.412L133.111 119.271C133.24 119.271 133.381 119.389 133.533 119.623C133.686 119.846 133.768 120.15 133.779 120.537C133.768 120.795 133.434 120.93 132.777 120.941C130.832 120.988 128.477 121.223 125.711 121.645C125.512 122.219 125.19 123.045 124.744 124.123C122.787 128.857 121.809 132.18 121.809 134.09C121.809 135.039 121.99 135.953 122.354 136.832C122.986 138.309 123.93 139.047 125.184 139.047C126.156 139.047 126.971 138.795 127.627 138.291C128.295 137.799 129.08 136.984 129.982 135.848C130.264 135.484 130.557 135.355 130.861 135.461C131.154 135.59 131.301 135.842 131.301 136.217C131.301 137.295 130.68 138.191 129.438 138.906C128.195 139.633 126.859 139.996 125.43 139.996C124.012 139.996 122.781 139.475 121.738 138.432C120.707 137.389 120.191 136 120.191 134.266C120.191 133.105 120.338 131.863 120.631 130.539C120.924 129.215 121.457 127.568 122.231 125.6C123.004 123.619 123.508 122.301 123.742 121.645C121.316 121.645 119.963 121.615 119.682 121.557C118.815 121.369 118.375 121 118.363 120.449C118.375 120.273 118.51 120.162 118.768 120.115L124.481 119.641L128.242 113.312C128.676 112.586 129.068 112.223 129.42 112.223C129.561 112.223 129.725 112.246 129.912 112.293C130.604 112.445 130.949 112.697 130.949 113.049C130.949 113.389 130.598 113.916 129.895 114.631C129.191 115.346 128.758 115.803 128.594 116.002C128.043 116.682 127.445 117.818 126.801 119.412ZM133.497 129.854C133.568 130.064 133.65 130.24 133.744 130.381C133.849 130.51 134.072 130.574 134.411 130.574C134.751 130.574 134.98 130.592 135.097 130.627C135.624 130.768 135.888 131.154 135.888 131.787C135.888 131.998 135.841 132.191 135.747 132.367C135.513 132.824 135.156 133.053 134.675 133.053C134.206 133.053 133.796 132.924 133.445 132.666C133.093 132.408 132.923 132.016 132.935 131.488C132.935 131.312 132.941 131.189 132.952 131.119C132.964 131.049 133.146 130.627 133.497 129.854ZM155.697 116.266L154.906 115.879C155.117 114.555 155.738 113.693 156.769 113.295C157.098 113.178 157.443 113.119 157.807 113.119C158.814 113.119 159.699 113.5 160.461 114.262C161.223 115.012 161.603 115.855 161.603 116.793C161.615 118.012 161.357 119.418 160.83 121.012C159.564 124.797 157.326 128.477 154.115 132.051L152.902 133.334C152.445 133.744 152.135 133.961 151.971 133.984C151.467 133.973 150.98 133.486 150.512 132.525C150.664 132.092 151.426 129.654 152.797 125.213C154.18 120.771 155.146 117.789 155.697 116.266ZM157.262 115.088C157.262 116.061 157.074 117.162 156.699 118.393C156.336 119.611 156.072 120.484 155.908 121.012C155.756 121.527 155.305 122.887 154.555 125.09C153.816 127.293 153.266 129.115 152.902 130.557C153.805 129.607 154.689 128.471 155.557 127.146C155.603 127.076 155.644 127.018 155.68 126.971C158.351 122.834 159.687 118.949 159.687 115.316C159.687 114.906 159.576 114.666 159.353 114.596C159.283 114.584 159.213 114.578 159.143 114.578C158.404 114.59 157.777 114.76 157.262 115.088ZM164.398 124.387C164.632 124.352 165.136 123.848 165.909 122.875C166.683 121.902 167.07 121.141 167.07 120.59C167.07 120.508 167.04 120.414 166.982 120.309C166.747 120.543 166.255 121.211 165.505 122.312C164.767 123.414 164.398 124.105 164.398 124.387ZM171.394 127.006C171.98 126.373 172.308 126.262 172.378 126.672C172.378 126.824 172.284 127.076 172.097 127.428C171.523 128.494 170.644 129.625 169.46 130.82C167.585 132.719 165.927 133.668 164.486 133.668C163.806 133.668 163.226 133.475 162.745 133.088C161.843 132.35 161.392 131.066 161.392 129.238C161.392 128.195 161.708 126.73 162.341 124.844C162.986 122.945 163.97 121.229 165.294 119.693C165.88 118.943 166.489 118.568 167.122 118.568C167.427 118.568 167.743 118.633 168.071 118.762C168.845 119.078 169.232 119.588 169.232 120.291C169.232 120.396 169.196 120.566 169.126 120.801C168.646 121.75 167.872 122.846 166.806 124.088C165.739 125.33 164.655 126.32 163.554 127.059C163.179 128.418 162.991 129.479 162.991 130.24C162.991 131.002 163.009 131.488 163.044 131.699C163.15 132.191 163.542 132.438 164.222 132.438C164.902 132.438 165.687 132.127 166.577 131.506C167.468 130.873 168.417 130.041 169.425 129.01C170.433 127.979 171.001 127.398 171.13 127.27C171.271 127.141 171.359 127.053 171.394 127.006ZM172.36 131.559C174.446 129.344 175.952 126.93 176.877 124.316C177.229 123.332 177.458 122.383 177.563 121.469C177.282 121.082 176.86 120.889 176.297 120.889C175.735 120.889 175.331 121.023 175.084 121.293L174.258 124.51C173.473 127.627 172.84 129.977 172.36 131.559ZM168.616 143.072C167.889 144.209 167.051 145.1 166.102 145.744C165.141 146.4 164.362 146.729 163.764 146.729C163.155 146.729 162.85 146.605 162.85 146.359C162.85 146.254 162.991 146.172 163.272 146.113H163.307C164.245 145.902 165.135 145.287 165.979 144.268C166.166 144.045 166.325 143.822 166.454 143.6C167.872 141.35 169.137 137.945 170.25 133.387L172.219 125.09C173.122 121.246 173.678 119.061 173.889 118.533C174.1 118.006 174.334 117.707 174.592 117.637C174.803 117.566 175.073 117.531 175.401 117.531C175.729 117.531 175.916 117.625 175.963 117.812C175.975 117.871 175.981 117.941 175.981 118.023C175.981 118.094 175.934 118.305 175.84 118.656C175.747 119.008 175.7 119.242 175.7 119.359C175.84 119.336 176.057 119.324 176.35 119.324C177.627 119.324 178.489 119.664 178.934 120.344C179.11 120.625 179.198 120.941 179.198 121.293C179.198 123.004 178.594 125.014 177.387 127.322C176.18 129.631 174.985 131.336 173.801 132.438C173.122 133.059 172.553 133.375 172.096 133.387C170.995 137.934 169.834 141.162 168.616 143.072ZM180.832 134.09C180.832 135.039 181.019 135.953 181.394 136.832C182.027 138.309 182.965 139.047 184.207 139.047C185.179 139.047 185.994 138.795 186.65 138.291C187.318 137.799 188.103 136.984 189.006 135.848C189.287 135.484 189.58 135.361 189.885 135.479C190.189 135.584 190.342 135.824 190.342 136.199C190.342 137.301 189.685 138.244 188.373 139.029C187.072 139.814 185.83 140.207 184.646 140.207C181.142 140.207 179.39 138.133 179.39 133.984C179.39 132.168 179.73 130.275 180.41 128.307L180.586 127.797C182.777 121.516 184.476 117.303 185.683 115.158C186.527 113.611 187.441 112.838 188.426 112.838C189.82 112.85 190.529 113.354 190.553 114.35C190.553 114.971 190.136 115.955 189.304 117.303C188.472 118.639 186.803 120.977 184.295 124.316C183.662 125.031 183.099 125.84 182.607 126.742C181.424 128.969 180.832 131.418 180.832 134.09ZM184.066 122.348C184.242 122.336 185.051 121.07 186.492 118.551C187.945 116.02 188.666 114.713 188.654 114.631C188.642 114.537 188.595 114.49 188.513 114.49C188.431 114.479 188.379 114.484 188.355 114.508C187.969 114.742 187.148 115.99 185.894 118.252C184.652 120.502 184.031 121.838 184.031 122.26C184.031 122.295 184.043 122.324 184.066 122.348ZM193.013 120.66C192.427 120.754 191.671 122.219 190.745 125.055C189.819 127.891 189.356 129.566 189.356 130.082C189.356 130.598 189.403 130.855 189.497 130.855C189.989 130.855 190.757 129.801 191.8 127.691C192.843 125.57 193.364 123.631 193.364 121.873C193.364 121.076 193.247 120.672 193.013 120.66ZM192.731 118.48C193.06 118.48 193.341 118.574 193.575 118.762C193.985 119.113 194.19 119.793 194.19 120.801C194.19 125.406 193.37 128.857 191.73 131.154L191.483 131.523C190.464 133 189.644 133.738 189.023 133.738C188.261 133.656 187.821 133.1 187.704 132.068C187.704 131.213 188.05 129.479 188.741 126.865C189.444 124.252 190.247 121.99 191.149 120.08C191.665 119.025 192.192 118.492 192.731 118.48ZM204.666 118.621C205.323 118.621 205.668 118.809 205.703 119.184C205.703 119.301 205.481 120.191 205.035 121.855C205.035 121.855 204.76 122.846 204.209 124.826C204.034 125.494 203.805 126.602 203.524 128.148C203.254 129.684 202.973 131.09 202.68 132.367C201.508 137.453 200.272 141.021 198.971 143.072C198.584 143.682 198.104 144.268 197.53 144.83C196.252 146.096 195.069 146.729 193.979 146.729C193.463 146.729 193.205 146.605 193.205 146.359C193.217 146.266 193.381 146.178 193.698 146.096C194.014 146.025 194.36 145.885 194.735 145.674C195.789 145.041 196.592 144.174 197.143 143.072C199.346 139.311 200.94 133.873 201.924 126.76C201.584 127.803 200.887 129.168 199.832 130.855C198.789 132.531 197.823 133.369 196.932 133.369C196.451 133.369 196.217 132.889 196.229 131.928C196.264 128.916 197.295 124.668 199.323 119.184C199.405 118.961 199.481 118.773 199.551 118.621C199.727 118.246 199.914 118.059 200.114 118.059C200.325 118.059 200.506 118.076 200.659 118.111C201.268 118.24 201.578 118.486 201.59 118.85C201.59 118.932 201.508 119.219 201.344 119.711L200.483 122.225C199.112 126.186 198.291 128.963 198.022 130.557C198.819 129.338 199.914 127.346 201.309 124.58C202.715 121.814 203.477 120.32 203.594 120.098C203.735 119.875 203.84 119.67 203.91 119.482L204.051 119.113C204.192 118.785 204.397 118.621 204.666 118.621ZM218.85 132.525C218.1 133.686 217.251 134.582 216.302 135.215C215.352 135.859 214.579 136.182 213.981 136.182C213.384 136.182 213.085 136.059 213.085 135.812C213.085 135.73 213.161 135.672 213.313 135.637C213.454 135.602 213.53 135.578 213.542 135.566C215.839 135.062 217.626 132.777 218.903 128.711C219.184 127.82 219.53 126.502 219.94 124.756L221.153 119.588H220.731C220.556 119.576 220.462 119.482 220.45 119.307C220.45 118.803 220.655 118.381 221.065 118.041C221.229 117.912 221.399 117.83 221.575 117.795C222.302 114.748 222.765 113.031 222.964 112.645C223.175 112.246 223.409 112.023 223.667 111.977C223.925 111.93 224.194 111.906 224.475 111.906C224.804 111.906 224.962 112.064 224.95 112.381C224.95 112.639 224.927 112.85 224.88 113.014C227.247 112.943 229.643 112.891 232.069 112.855C232.432 112.855 232.714 113.102 232.913 113.594C232.972 113.746 233.007 113.875 233.018 113.98C233.007 114.227 232.561 114.35 231.682 114.35C229.819 114.373 227.393 114.49 224.405 114.701L223.649 117.725C226.181 117.654 228.19 117.619 229.679 117.619C230.042 117.619 230.317 117.859 230.505 118.34C230.563 118.504 230.599 118.639 230.61 118.744C230.599 118.99 230.071 119.125 229.028 119.148C227.985 119.16 226.046 119.266 223.21 119.465L222.366 122.84C221.182 127.492 220.011 130.721 218.85 132.525ZM233.58 116.793C233.522 116.77 233.375 116.676 233.141 116.512C232.86 116.312 232.719 116.166 232.719 116.072C232.719 115.756 233.158 115.012 234.037 113.84C234.916 112.668 235.414 111.965 235.531 111.73C235.824 111.438 236.229 111.584 236.744 112.17C237.154 112.662 237.283 113.061 237.131 113.365C237.049 113.67 236.551 114.314 235.637 115.299C234.723 116.283 234.037 116.781 233.58 116.793ZM237.781 127.832C237.348 129.051 236.486 130.293 235.197 131.559C233.674 133.059 232.397 133.809 231.365 133.809C229.971 133.809 229.098 133.018 228.746 131.436C228.641 130.955 228.588 130.434 228.588 129.871C228.576 128.055 228.922 125.951 229.625 123.561C230.504 120.537 231.336 119.025 232.121 119.025C232.508 119.025 232.789 119.119 232.965 119.307C233.152 119.482 233.246 119.611 233.246 119.693C233.246 120.068 232.865 120.994 232.104 122.471C231.342 123.936 230.867 125.002 230.68 125.67C230.504 126.326 230.369 127.188 230.276 128.254C230.194 129.309 230.152 129.988 230.152 130.293C230.152 131.324 230.276 131.969 230.522 132.227C230.779 132.484 231.09 132.619 231.453 132.631C232.485 132.631 233.715 131.734 235.145 129.941C235.836 129.062 236.375 128.254 236.762 127.516C236.938 127.234 237.119 127.094 237.307 127.094C237.623 127.141 237.799 127.299 237.834 127.568C237.834 127.604 237.817 127.691 237.781 127.832ZM244.548 121.943L244.513 122.172L244.478 122.383C244.478 122.664 244.068 123.789 243.247 125.758C242.415 127.727 242.005 129.121 242.017 129.941C242.04 131.336 242.38 132.039 243.037 132.051C243.693 132.051 244.654 131.318 245.919 129.854C247.443 128.096 248.374 126.771 248.714 125.881C249.054 125.002 249.318 124.562 249.505 124.562C249.658 124.574 249.74 124.738 249.751 125.055C249.751 125.359 249.716 125.594 249.646 125.758L249.47 126.232C248.966 127.521 248.175 128.863 247.097 130.258C245.539 132.309 244.15 133.334 242.931 133.334C242.544 133.334 242.193 133.234 241.876 133.035C241.08 132.531 240.681 131.582 240.681 130.188C240.681 129.73 240.781 129.027 240.98 128.078C241.191 127.129 241.29 126.619 241.279 126.549C241.279 126.467 241.173 126.379 240.962 126.285C240.54 126.098 240.259 126.074 240.119 126.215C240.001 126.379 239.48 127.645 238.554 130.012C237.64 132.379 237.013 133.562 236.673 133.562C236.568 133.562 236.369 133.492 236.076 133.352C235.771 133.211 235.619 133.018 235.619 132.771C235.619 132.725 235.771 132.367 236.076 131.699L237.042 129.467C237.722 127.896 238.519 125.805 239.433 123.191L241.771 116.582C241.83 116.418 242.017 116.33 242.333 116.318L242.79 116.301C243.353 116.301 243.634 116.506 243.634 116.916C243.634 117.115 243.33 117.994 242.72 119.553C242.111 121.111 241.718 122.312 241.542 123.156L241.49 123.684C241.49 123.836 241.519 123.924 241.578 123.947C241.613 123.936 241.759 123.678 242.017 123.174L242.474 122.277C242.544 122.172 242.615 122.031 242.685 121.855C242.943 121.375 243.247 121.135 243.599 121.135C244.208 121.146 244.525 121.398 244.548 121.891V121.943ZM255.745 120.713C255.745 122.412 255.276 123.285 254.339 123.332C254.104 123.332 253.882 123.273 253.671 123.156C253.764 125.219 253.811 127.229 253.811 129.186C253.811 131.143 253.442 132.531 252.704 133.352C252.282 133.82 251.737 134.055 251.069 134.055C250.413 134.066 249.915 133.838 249.575 133.369C249.235 132.912 249.065 132.461 249.065 132.016C249.089 131.465 249.44 131.184 250.12 131.172C250.553 131.172 250.741 131.471 250.682 132.068C250.624 132.666 250.764 132.965 251.104 132.965C251.737 132.965 252.124 132.162 252.264 130.557C252.335 129.818 252.364 128.793 252.352 127.48C252.352 126.168 252.247 125.506 252.036 125.494C251.942 125.494 251.813 125.652 251.649 125.969C251.485 126.273 251.087 126.906 250.454 127.867C249.833 128.828 249.294 129.543 248.837 130.012C248.38 130.48 248.081 130.738 247.94 130.785C247.612 130.902 247.425 130.797 247.378 130.469C247.389 130.117 247.571 129.707 247.923 129.238C249.188 127.562 250.407 125.629 251.579 123.438C251.848 122.934 251.983 122.641 251.983 122.559V120.027C251.983 119.547 252.217 119.178 252.686 118.92C252.885 118.814 253.073 118.762 253.249 118.762C253.975 118.773 254.649 118.99 255.27 119.412C255.563 119.623 255.716 119.857 255.727 120.115C255.739 120.373 255.745 120.572 255.745 120.713ZM253.53 121.891C253.928 121.82 254.157 121.686 254.216 121.486C254.286 121.275 254.321 121.07 254.321 120.871C254.321 120.66 254.309 120.502 254.286 120.396C253.934 120.396 253.694 120.643 253.565 121.135C253.518 121.299 253.495 121.451 253.495 121.592C253.495 121.732 253.507 121.832 253.53 121.891ZM262.67 119.412L268.98 119.271C269.109 119.271 269.25 119.389 269.402 119.623C269.555 119.846 269.637 120.15 269.648 120.537C269.637 120.795 269.303 120.93 268.646 120.941C266.701 120.988 264.346 121.223 261.58 121.645C261.381 122.219 261.059 123.045 260.613 124.123C258.656 128.857 257.678 132.18 257.678 134.09C257.678 135.039 257.859 135.953 258.223 136.832C258.855 138.309 259.799 139.047 261.053 139.047C262.025 139.047 262.84 138.795 263.496 138.291C264.164 137.799 264.949 136.984 265.852 135.848C266.133 135.484 266.426 135.355 266.73 135.461C267.023 135.59 267.17 135.842 267.17 136.217C267.17 137.295 266.549 138.191 265.307 138.906C264.064 139.633 262.729 139.996 261.299 139.996C259.881 139.996 258.65 139.475 257.607 138.432C256.576 137.389 256.061 136 256.061 134.266C256.061 133.105 256.207 131.863 256.5 130.539C256.793 129.215 257.326 127.568 258.1 125.6C258.873 123.619 259.377 122.301 259.611 121.645C257.186 121.645 255.832 121.615 255.551 121.557C254.684 121.369 254.244 121 254.232 120.449C254.244 120.273 254.379 120.162 254.637 120.115L260.35 119.641L264.111 113.312C264.545 112.586 264.938 112.223 265.289 112.223C265.43 112.223 265.594 112.246 265.781 112.293C266.473 112.445 266.818 112.697 266.818 113.049C266.818 113.389 266.467 113.916 265.764 114.631C265.061 115.346 264.627 115.803 264.463 116.002C263.912 116.682 263.314 117.818 262.67 119.412ZM269.366 129.854C269.437 130.064 269.519 130.24 269.613 130.381C269.718 130.51 269.941 130.574 270.281 130.574C270.62 130.574 270.849 130.592 270.966 130.627C271.493 130.768 271.757 131.154 271.757 131.787C271.757 131.998 271.71 132.191 271.616 132.367C271.382 132.824 271.025 133.053 270.544 133.053C270.075 133.053 269.665 132.924 269.314 132.666C268.962 132.408 268.792 132.016 268.804 131.488C268.804 131.312 268.81 131.189 268.822 131.119C268.833 131.049 269.015 130.627 269.366 129.854ZM286.381 129.906L286.275 131.119C286.275 131.576 286.433 131.816 286.75 131.84C287.746 131.84 288.461 130.176 288.894 126.848L290.635 113.436C290.67 113.201 290.758 112.967 290.898 112.732C291.25 112.17 291.707 111.889 292.269 111.889C292.832 111.889 293.412 112.111 294.01 112.557C294.607 113.002 294.906 113.594 294.906 114.332C294.906 115.059 294.765 115.814 294.484 116.6C294.027 117.854 293.447 118.48 292.744 118.48C292.357 118.48 292.076 118.352 291.9 118.094L290.599 126.918C290.377 128.336 290.055 129.578 289.633 130.645C288.859 132.531 287.91 133.475 286.785 133.475C286.246 133.475 285.719 133.246 285.203 132.789C284.699 132.32 284.447 131.582 284.447 130.574C284.447 129.555 284.834 129.039 285.607 129.027C286.099 129.039 286.357 129.332 286.381 129.906ZM292.041 116.266C292.791 116.184 293.183 115.51 293.219 114.244C292.996 114.268 292.732 114.408 292.428 114.666C292.135 114.912 291.988 115.322 291.988 115.896C291.988 116.025 292.006 116.148 292.041 116.266ZM299.933 119.412L306.243 119.271C306.372 119.271 306.513 119.389 306.665 119.623C306.818 119.846 306.9 120.15 306.911 120.537C306.9 120.795 306.566 120.93 305.909 120.941C303.964 120.988 301.609 121.223 298.843 121.645C298.644 122.219 298.321 123.045 297.876 124.123C295.919 128.857 294.941 132.18 294.941 134.09C294.941 135.039 295.122 135.953 295.485 136.832C296.118 138.309 297.062 139.047 298.316 139.047C299.288 139.047 300.103 138.795 300.759 138.291C301.427 137.799 302.212 136.984 303.114 135.848C303.396 135.484 303.689 135.355 303.993 135.461C304.286 135.59 304.433 135.842 304.433 136.217C304.433 137.295 303.812 138.191 302.569 138.906C301.327 139.633 299.991 139.996 298.562 139.996C297.144 139.996 295.913 139.475 294.87 138.432C293.839 137.389 293.323 136 293.323 134.266C293.323 133.105 293.47 131.863 293.763 130.539C294.056 129.215 294.589 127.568 295.362 125.6C296.136 123.619 296.64 122.301 296.874 121.645C294.448 121.645 293.095 121.615 292.814 121.557C291.946 121.369 291.507 121 291.495 120.449C291.507 120.273 291.642 120.162 291.9 120.115L297.612 119.641L301.374 113.312C301.808 112.586 302.2 112.223 302.552 112.223C302.693 112.223 302.857 112.246 303.044 112.293C303.735 112.445 304.081 112.697 304.081 113.049C304.081 113.389 303.73 113.916 303.026 114.631C302.323 115.346 301.89 115.803 301.726 116.002C301.175 116.682 300.577 117.818 299.933 119.412ZM307.631 124.387C307.866 124.352 308.37 123.848 309.143 122.875C309.916 121.902 310.303 121.141 310.303 120.59C310.303 120.508 310.274 120.414 310.215 120.309C309.981 120.543 309.489 121.211 308.739 122.312C308 123.414 307.631 124.105 307.631 124.387ZM314.627 127.006C315.213 126.373 315.541 126.262 315.612 126.672C315.612 126.824 315.518 127.076 315.33 127.428C314.756 128.494 313.877 129.625 312.694 130.82C310.819 132.719 309.161 133.668 307.719 133.668C307.039 133.668 306.459 133.475 305.979 133.088C305.077 132.35 304.625 131.066 304.625 129.238C304.625 128.195 304.942 126.73 305.575 124.844C306.219 122.945 307.204 121.229 308.528 119.693C309.114 118.943 309.723 118.568 310.356 118.568C310.661 118.568 310.977 118.633 311.305 118.762C312.079 119.078 312.465 119.588 312.465 120.291C312.465 120.396 312.43 120.566 312.36 120.801C311.879 121.75 311.106 122.846 310.039 124.088C308.973 125.33 307.889 126.32 306.788 127.059C306.413 128.418 306.225 129.479 306.225 130.24C306.225 131.002 306.243 131.488 306.278 131.699C306.383 132.191 306.776 132.438 307.455 132.438C308.135 132.438 308.92 132.127 309.811 131.506C310.702 130.873 311.651 130.041 312.659 129.01C313.666 127.979 314.235 127.398 314.364 127.27C314.504 127.141 314.592 127.053 314.627 127.006ZM322.871 121.521C320.996 121.838 319.361 123.068 317.966 125.213C316.607 127.299 315.892 129.361 315.822 131.4C318.506 127.861 320.855 124.568 322.871 121.521ZM322.062 120.027L323.099 120.168C323.263 120.168 323.433 120.074 323.609 119.887C323.797 119.699 324.031 119.605 324.312 119.605C324.605 119.605 324.834 119.682 324.998 119.834C325.174 119.986 325.261 120.121 325.261 120.238C325.261 120.344 325.203 120.525 325.086 120.783C324.968 121.041 324.898 121.211 324.875 121.293C323.316 126.18 322.537 129.297 322.537 130.645C322.549 131.113 322.654 131.354 322.853 131.365C323.568 131.365 324.687 130.428 326.211 128.553C327.23 127.299 327.886 126.379 328.179 125.793C328.484 125.207 328.724 124.896 328.9 124.861C328.935 124.861 328.965 124.855 328.988 124.844C329.199 124.867 329.31 124.99 329.322 125.213C329.322 125.635 328.836 126.584 327.863 128.061C325.789 131.225 323.996 132.807 322.484 132.807C321.394 132.807 320.849 132.045 320.849 130.521C320.849 129.795 320.996 128.893 321.289 127.814C321.582 126.725 321.758 126.045 321.816 125.775C321.547 126.127 320.644 127.404 319.109 129.607C317.574 131.811 316.472 133.111 315.804 133.51C315.593 133.627 315.412 133.691 315.259 133.703C314.591 133.703 314.105 133.439 313.8 132.912C313.66 132.654 313.59 132.285 313.59 131.805C313.578 131.312 313.935 130.188 314.662 128.43C315.834 125.594 317.164 123.408 318.652 121.873C319.824 120.678 320.961 120.062 322.062 120.027ZM344.017 109.973C341.837 113.559 339.616 118.721 337.354 125.459C337.354 125.459 337.114 126.139 336.634 127.498C335.38 130.955 334.747 133.229 334.735 134.318C334.759 134.506 334.946 134.764 335.298 135.092C335.638 135.361 335.808 135.619 335.808 135.865C335.784 136.533 335.532 136.902 335.052 136.973C334.759 136.973 334.495 136.867 334.261 136.656C333.792 136.223 333.558 135.52 333.558 134.547C333.558 132.742 333.938 130.762 334.7 128.605C335.474 126.438 335.931 125.09 336.071 124.562L334.261 126.936C332.644 129.057 331.173 130.762 329.849 132.051C329.743 132.109 329.438 132.35 328.935 132.771C328.442 133.182 327.845 133.387 327.142 133.387C326.942 133.387 326.761 133.352 326.597 133.281C326.022 133.047 325.735 132.52 325.735 131.699C325.735 131.277 326.122 130.363 326.895 128.957C327.669 127.551 328.993 125.723 330.868 123.473C332.755 121.223 334.038 119.957 334.718 119.676C335.409 119.395 336.142 119.254 336.915 119.254C337.22 119.043 337.542 118.738 337.882 118.34C338.222 117.941 338.626 117.25 339.095 116.266L340.009 114.332C340.208 113.934 340.56 113.184 341.063 112.082C341.567 110.969 341.966 110.119 342.259 109.533C343.466 107.119 344.468 105.912 345.265 105.912C346.05 105.924 346.454 106.311 346.478 107.072C346.478 107.646 346.237 108.273 345.757 108.953C345.276 109.633 344.696 109.973 344.017 109.973ZM335.368 122.119C335.485 121.768 335.544 121.533 335.544 121.416C335.544 121.287 335.52 121.211 335.474 121.188C335.392 121.188 335.028 121.498 334.384 122.119C331.829 124.51 329.743 127.094 328.126 129.871C327.751 130.527 327.563 130.943 327.563 131.119C327.563 131.295 327.604 131.395 327.686 131.418C327.792 131.418 327.956 131.342 328.179 131.189C329.011 130.627 330.288 129.344 332.011 127.34C333.733 125.336 334.853 123.596 335.368 122.119ZM341.608 132.525C340.858 133.686 340.008 134.582 339.059 135.215C338.11 135.859 337.336 136.182 336.739 136.182C336.141 136.182 335.842 136.059 335.842 135.812C335.842 135.73 335.918 135.672 336.071 135.637C336.211 135.602 336.287 135.578 336.299 135.566C338.596 135.062 340.383 132.777 341.66 128.711C341.942 127.82 342.287 126.502 342.698 124.756L343.91 119.588H343.489C343.313 119.576 343.219 119.482 343.207 119.307C343.207 118.803 343.412 118.381 343.823 118.041C343.987 117.912 344.156 117.83 344.332 117.795C345.059 114.748 345.522 113.031 345.721 112.645C345.932 112.246 346.166 112.023 346.424 111.977C346.682 111.93 346.951 111.906 347.233 111.906C347.561 111.906 347.719 112.064 347.707 112.381C347.707 112.639 347.684 112.85 347.637 113.014C350.004 112.943 352.401 112.891 354.826 112.855C355.19 112.855 355.471 113.102 355.67 113.594C355.729 113.746 355.764 113.875 355.776 113.98C355.764 114.227 355.319 114.35 354.44 114.35C352.576 114.373 350.151 114.49 347.162 114.701L346.406 117.725C348.938 117.654 350.948 117.619 352.436 117.619C352.799 117.619 353.074 117.859 353.262 118.34C353.321 118.504 353.356 118.639 353.367 118.744C353.356 118.99 352.828 119.125 351.785 119.148C350.742 119.16 348.803 119.266 345.967 119.465L345.123 122.84C343.94 127.492 342.768 130.721 341.608 132.525ZM359.132 121.521C357.257 121.838 355.623 123.068 354.228 125.213C352.869 127.299 352.154 129.361 352.084 131.4C354.767 127.861 357.117 124.568 359.132 121.521ZM358.324 120.027L359.361 120.168C359.525 120.168 359.695 120.074 359.871 119.887C360.058 119.699 360.293 119.605 360.574 119.605C360.867 119.605 361.095 119.682 361.259 119.834C361.435 119.986 361.523 120.121 361.523 120.238C361.523 120.344 361.464 120.525 361.347 120.783C361.23 121.041 361.16 121.211 361.136 121.293C359.578 126.18 358.798 129.297 358.798 130.645C358.81 131.113 358.916 131.354 359.115 131.365C359.83 131.365 360.949 130.428 362.472 128.553C363.492 127.299 364.148 126.379 364.441 125.793C364.746 125.207 364.986 124.896 365.162 124.861C365.197 124.861 365.226 124.855 365.25 124.844C365.46 124.867 365.572 124.99 365.584 125.213C365.584 125.635 365.097 126.584 364.125 128.061C362.05 131.225 360.257 132.807 358.746 132.807C357.656 132.807 357.111 132.045 357.111 130.521C357.111 129.795 357.257 128.893 357.55 127.814C357.843 126.725 358.019 126.045 358.078 125.775C357.808 126.127 356.906 127.404 355.371 129.607C353.835 131.811 352.734 133.111 352.066 133.51C351.855 133.627 351.673 133.691 351.521 133.703C350.853 133.703 350.367 133.439 350.062 132.912C349.921 132.654 349.851 132.285 349.851 131.805C349.839 131.312 350.197 130.188 350.923 128.43C352.095 125.594 353.425 123.408 354.914 121.873C356.085 120.678 357.222 120.062 358.324 120.027ZM370.856 120.713C370.856 122.412 370.388 123.285 369.45 123.332C369.216 123.332 368.993 123.273 368.782 123.156C368.876 125.219 368.923 127.229 368.923 129.186C368.923 131.143 368.554 132.531 367.815 133.352C367.393 133.82 366.848 134.055 366.18 134.055C365.524 134.066 365.026 133.838 364.686 133.369C364.346 132.912 364.177 132.461 364.177 132.016C364.2 131.465 364.552 131.184 365.231 131.172C365.665 131.172 365.852 131.471 365.794 132.068C365.735 132.666 365.876 132.965 366.216 132.965C366.848 132.965 367.235 132.162 367.376 130.557C367.446 129.818 367.475 128.793 367.464 127.48C367.464 126.168 367.358 125.506 367.147 125.494C367.054 125.494 366.925 125.652 366.761 125.969C366.596 126.273 366.198 126.906 365.565 127.867C364.944 128.828 364.405 129.543 363.948 130.012C363.491 130.48 363.192 130.738 363.052 130.785C362.723 130.902 362.536 130.797 362.489 130.469C362.501 130.117 362.682 129.707 363.034 129.238C364.3 127.562 365.518 125.629 366.69 123.438C366.96 122.934 367.095 122.641 367.095 122.559V120.027C367.095 119.547 367.329 119.178 367.798 118.92C367.997 118.814 368.184 118.762 368.36 118.762C369.087 118.773 369.761 118.99 370.382 119.412C370.675 119.623 370.827 119.857 370.839 120.115C370.85 120.373 370.856 120.572 370.856 120.713ZM368.641 121.891C369.04 121.82 369.268 121.686 369.327 121.486C369.397 121.275 369.432 121.07 369.432 120.871C369.432 120.66 369.421 120.502 369.397 120.396C369.046 120.396 368.805 120.643 368.677 121.135C368.63 121.299 368.606 121.451 368.606 121.592C368.606 121.732 368.618 121.832 368.641 121.891ZM377.781 119.412L384.092 119.271C384.221 119.271 384.361 119.389 384.514 119.623C384.666 119.846 384.748 120.15 384.76 120.537C384.748 120.795 384.414 120.93 383.758 120.941C381.813 120.988 379.457 121.223 376.691 121.645C376.492 122.219 376.17 123.045 375.725 124.123C373.768 128.857 372.789 132.18 372.789 134.09C372.789 135.039 372.971 135.953 373.334 136.832C373.967 138.309 374.91 139.047 376.164 139.047C377.137 139.047 377.951 138.795 378.608 138.291C379.275 137.799 380.061 136.984 380.963 135.848C381.244 135.484 381.537 135.355 381.842 135.461C382.135 135.59 382.281 135.842 382.281 136.217C382.281 137.295 381.66 138.191 380.418 138.906C379.176 139.633 377.84 139.996 376.41 139.996C374.992 139.996 373.762 139.475 372.719 138.432C371.688 137.389 371.172 136 371.172 134.266C371.172 133.105 371.318 131.863 371.611 130.539C371.904 129.215 372.438 127.568 373.211 125.6C373.984 123.619 374.488 122.301 374.723 121.645C372.297 121.645 370.943 121.615 370.662 121.557C369.795 121.369 369.356 121 369.344 120.449C369.356 120.273 369.49 120.162 369.748 120.115L375.461 119.641L379.223 113.312C379.656 112.586 380.049 112.223 380.4 112.223C380.541 112.223 380.705 112.246 380.893 112.293C381.584 112.445 381.93 112.697 381.93 113.049C381.93 113.389 381.578 113.916 380.875 114.631C380.172 115.346 379.738 115.803 379.574 116.002C379.024 116.682 378.426 117.818 377.781 119.412ZM384.478 129.854C384.548 130.064 384.63 130.24 384.724 130.381C384.829 130.51 385.052 130.574 385.392 130.574C385.732 130.574 385.96 130.592 386.078 130.627C386.605 130.768 386.869 131.154 386.869 131.787C386.869 131.998 386.822 132.191 386.728 132.367C386.494 132.824 386.136 133.053 385.656 133.053C385.187 133.053 384.777 132.924 384.425 132.666C384.074 132.408 383.904 132.016 383.915 131.488C383.915 131.312 383.921 131.189 383.933 131.119C383.945 131.049 384.126 130.627 384.478 129.854Z" fill="black"/>
<path d="M495.919 45.3694H508.102V48.469H495.919V84.1204H500.706L508.015 77.6096L510.712 80.0129L502.62 87.22H485.303L477.21 80.0129L476.64 42.3225H495.825L495.919 45.3694ZM494.798 9.27075L495.576 34.2893H476.518L476.089 5.93774H469.999V2.83813H487.576L494.798 9.27075Z" fill="#BA9AD3"/>
<path d="M492.208 42.5312H504.39V45.6318H492.208V81.2822H496.994L504.303 74.7725L507 77.1748L498.908 84.3828H481.591L473.499 77.1748L472.971 42.3232H492.201L492.208 42.5312ZM491.086 6.43262L491.952 34.29H472.849L472.377 3.09961H466.287V0H483.864L491.086 6.43262Z" fill="black"/>
<path d="M464.258 71.4073V80.7852L457.036 87.2178H429.625L423.708 81.9483V87.9932H419.792V71.3301H423.708V77.1426L431.54 84.1182H449.901L429.371 64.7452H457.199L464.258 71.4073ZM463.388 56.6046H459.472V50.7921L451.641 43.8165H435.021L450.688 58.6016H422.861L420.663 56.5274V47.1495L427.885 40.7169H453.555L459.472 45.9874V39.9415H463.388V56.6046Z" fill="#BA9AD3"/>
<path d="M460.546 68.5692V77.9461L453.324 84.3797H425.914L419.997 79.1092V85.1541H416.081V68.491H419.997V74.3035L427.828 81.2791H446.189L428.667 64.744H456.493L460.546 68.5692ZM459.676 53.7654H455.76V47.9529L447.929 40.9783H431.308L449.982 58.6004H422.156L416.951 53.6883V44.3104L424.173 37.8777H449.843L455.76 43.1483V37.1033H459.676V53.7654Z" fill="black"/>
<path d="M363.408 87.2188L356.185 80.7861V68.8508L363.408 62.4181H385.771V43.8176H376.634V56.218H358.36V47.1502L365.583 40.7175H398.563L405.785 47.1502V84.1187H412.747V87.2188H392.994L387.772 82.4912L382.464 87.2188H363.408ZM376.634 65.5182V84.1187H380.55L385.771 79.4686V65.5182H376.634Z" fill="#BA9AD3"/>
<path d="M359.698 84.3806L352.476 77.9479V66.0126L359.698 59.5799H382.062V40.9794H372.925V53.3798H354.651V44.312L361.873 37.8793H394.853L402.076 44.312V81.2805H409.037V84.3806H389.284L384.063 79.653L378.755 84.3806H359.698ZM372.925 62.68V81.2805H376.841L382.062 76.6304V62.68H372.925Z" fill="black"/>
<path d="M321.121 55.4416H341.831V58.5422H321.121V84.1174H328.082V87.218H294.145V84.1174H301.106V52.6896H321.121V55.4416ZM349.227 43.0412H345.311V28.3156H321.121V42.2932H301.106V28.3156H294.145V25.216H349.227V43.0412Z" fill="#BA9AD3"/>
<path d="M338.119 52.6044V55.704H317.409V81.2802H324.37V84.3798H290.433V81.2802H297.394V52.6904H321.511V52.6044H338.119ZM345.515 40.204H341.599V25.4785H317.409V42.2929H297.394V25.4785H290.433V22.3779H345.515V40.204Z" fill="black"/>
<path d="M291.573 84.1153V87.2154H272.69L266.599 81.7128L260.42 87.2154H238.666L230.573 80.0077V47.922L238.666 40.7144H259.898L264.597 44.8995L265.467 6.64153H258.506V3.54144H277.389L285.481 10.7491L284.611 84.1153H291.573ZM264.597 78.6902V49.7046L257.984 43.8144H251.022V84.1153H258.506L264.597 78.6902Z" fill="#BA9AD3"/>
<path d="M287.863 81.2852V84.3853H268.98L262.889 78.8826L256.71 84.3853H234.956L226.863 77.1776V45.0919L234.956 37.8842H256.188L260.887 42.0693L261.757 3.81139H254.796V0.711304H273.679L281.771 7.919L280.901 81.2852H287.863ZM260.887 75.8601V46.8744L254.274 40.9843H247.312V81.2852H254.796L260.887 75.8601Z" fill="black"/>
<path d="M175.117 87.2188L167.895 80.7861V68.8508L175.117 62.4181H197.481V43.8176H188.344V56.218H170.07V47.1502L177.292 40.7175H210.272L217.495 47.1502V84.1187H224.456V87.2188H204.703L199.482 82.4912L194.174 87.2188H175.117ZM188.344 65.5182V84.1187H192.26L197.481 79.4686V65.5182H188.344Z" fill="#BA9AD3"/>
<path d="M171.408 84.3806L164.185 77.9479V66.0126L171.408 59.5799H193.771V40.9794H184.634V53.3798H166.361V44.312L173.583 37.8793H206.563L213.785 44.312V81.2805H220.747V84.3806H200.994L195.773 79.653L190.464 84.3806H171.408ZM184.634 62.68V81.2805H188.55L193.771 76.6304V62.68H184.634Z" fill="black"/>
<path d="M117.653 87.2188L109.561 80.0111V47.9252L117.653 40.7175H151.068L159.161 47.9252V60.6356L151.068 67.8433H129.575V84.1187H149.589L156.898 77.6085L159.596 80.0111L151.503 87.2188H117.653ZM129.575 43.8176V64.7432H139.147V43.8176H129.575Z" fill="#BA9AD3"/>
<path d="M113.943 84.3806L105.851 77.1729V45.087L113.943 37.8793H147.358L155.451 45.087V57.7974L147.358 65.0051H125.865V81.2805H145.879L153.188 74.7703L155.886 77.1729L147.793 84.3806H113.943ZM125.865 40.9794V61.905H135.437V40.9794H125.865Z" fill="black"/>
<path d="M88.6831 56.8279H101.002V59.0789H88.6831V84.9666H93.5229L100.915 80.239L103.642 81.9841L95.4585 87.2175H77.9487L69.7651 81.9841L69.062 53.8699H88.5659L88.6831 56.8279ZM86.8032 9.18823L88.2124 44.8914H68.8374L67.8843 6.76831H61.7251V4.51733H79.4995L86.8032 9.18823Z" fill="#BA9AD3"/>
<path d="M85.0063 53.9897H97.3247V56.2407H85.0063V82.1284H89.8452L97.2368 77.4019L99.9644 79.146L91.7817 84.3804H74.271L66.0874 79.146L65.4556 53.8706H85.0015L85.0063 53.9897ZM83.1255 6.3501L84.647 44.8911H65.231L64.2065 3.93018H58.0474V1.6792H75.8218L83.1255 6.3501Z" fill="black"/>
<path d="M58.5859 69.3226V80.0179L50.4932 87.2259H13.6846L7.59277 81.8001V88.0003H3.67773V68.6253H7.59277V76.9954L15.5986 84.1253H43.6182L14.7939 53.8782H43.8682L58.5859 69.3226ZM56.8447 43.8245H52.9297V35.4544L44.9238 28.3235H19.5146L35.3115 44.8997H6.23828L4.54785 43.1263V32.431L12.6396 25.2239H46.8379L52.9297 30.6487V24.4485H56.8447V43.8245Z" fill="#BA9AD3"/>
<path d="M54.9082 66.4845V77.1798L46.8154 84.3878H10.0068L3.91602 78.962V85.1622H0V65.7872H3.91602V74.1573L11.9209 81.2872H39.9414L13.8213 53.879H42.8955L54.9082 66.4845ZM53.168 40.9865H49.252V32.6163L41.2461 25.4865H15.8369L34.3379 44.8995H5.26367L0.870117 40.2892V29.5939L8.96289 22.3859H43.1611L49.252 27.8107V21.6105H53.168V40.9865Z" fill="black"/>
</svg>
