<svg width="256" height="256" viewBox="0 0 256 256" fill="none" xmlns="http://www.w3.org/2000/svg">
<rect width="256" height="256" rx="32" fill="white"/>
<path d="M81 158.48H88.38V176.192L103.468 191.28H156.276L82.64 104.524V81.892L97.892 66.64H162.344L173.824 78.12V65H181.204V106H173.824V88.288L158.736 73.2H110.848L184.484 159.956V182.588L169.232 197.84H99.86L88.38 186.36V199.48H81V158.48Z" fill="#C1AAD3"/>
<path d="M76.2215 152.64H83.6015V170.352L98.6895 185.44H151.497L77.8615 98.684V76.052L93.1135 60.8H157.565L169.045 72.28V59.16H176.425V100.16H169.045V82.448L153.957 67.36H106.069L179.705 154.116V176.748L164.453 192H95.0815L83.6015 180.52V193.64H76.2215V152.64Z" fill="black"/>
<path d="M171 138H76V115H171V138Z" fill="white"/>
</svg>
