<svg width="963" height="187" viewBox="0 0 963 187" fill="none" xmlns="http://www.w3.org/2000/svg">
<path d="M934.764 96H957.724V102.56H934.764V178H943.783L957.56 164.224L962.644 169.308L947.392 184.56H914.755L899.503 169.308L898.429 89.5596H934.586L934.764 96ZM932.65 19.6123L934.115 72.5596H898.199L897.391 12.5596H885.91V6H919.038L932.65 19.6123Z" fill="#BA9AD3"/>
<path d="M927.764 90H950.724V96.5596H927.764V172H936.783L950.56 158.224L955.644 163.308L940.392 178.56H907.755L892.503 163.308L891.509 89.5596H927.752L927.764 90ZM925.65 13.6123L927.281 72.5596H891.28L890.391 6.55957H878.91V0H912.038L925.65 13.6123Z" fill="black"/>
<path d="M874.968 151.104V170.947L861.356 184.56H809.696L798.544 173.407V186.199H791.164V150.939H798.544V163.239L813.304 178H847.908L809.212 137H861.656L874.968 151.104ZM873.328 119.779H865.948V107.479L851.188 92.7197H819.864L849.387 124H796.942L792.804 119.615V99.7715L806.416 86.1592H854.796L865.948 97.3115V84.5195H873.328V119.779Z" fill="#BA9AD3"/>
<path d="M867.968 145.104V164.947L854.356 178.56H802.696L791.544 167.407V180.199H784.164V144.939H791.544V157.239L806.304 172H840.908L807.875 137H860.319L867.968 145.104ZM866.328 113.779H858.948V101.479L844.188 86.7197H812.864L848.05 124H795.605L785.804 113.615V93.7715L799.416 80.1592H847.796L858.948 91.3115V78.5195H866.328V113.779Z" fill="black"/>
<path d="M684.979 184.559L671.367 170.947V145.691L684.979 132.079H727.127V92.7192H709.907V118.959H675.467V99.7712L689.079 86.1592H751.235L764.847 99.7712V177.999H777.967V184.559H740.739L730.899 174.555L720.895 184.559H684.979ZM709.907 138.639V177.999H717.287L727.127 168.159V138.639H709.907Z" fill="#BA9AD3"/>
<path d="M677.979 178.559L664.367 164.947V139.691L677.979 126.079H720.127V86.7192H702.907V112.959H668.467V93.7712L682.079 80.1592H744.235L757.847 93.7712V171.999H770.967V178.559H733.739L723.899 168.555L713.895 178.559H677.979ZM702.907 132.639V171.999H710.287L720.127 162.159V132.639H702.907Z" fill="black"/>
<path d="M605.297 117.319H644.329V123.879H605.297V177.999H618.417V184.56H554.457V177.999H567.577V111.5H605.297V117.319ZM658.269 91.0791H650.889V59.9189H605.297V89.5H567.577V59.9189H554.457V53.3594H658.269V91.0791Z" fill="#BA9AD3"/>
<path d="M637.329 111.319V117.879H598.297V171.999H611.417V178.56H547.457V171.999H560.577V111.5H606V111.319H637.329ZM651.269 85.0791H643.889V53.9189H598.297V89.5H560.577V53.9189H547.457V47.3594H651.269V85.0791Z" fill="black"/>
<path d="M549.581 177.999V184.559H513.993L502.513 172.915L490.869 184.559H449.869L434.617 169.307V101.411L449.869 86.1596H489.885L498.741 95.0155L500.381 14.059H487.261V7.49902H522.849L538.101 22.751L536.461 177.999H549.581ZM498.741 166.519V105.183L486.277 92.7195H473.157V177.999H487.261L498.741 166.519Z" fill="#BA9AD3"/>
<path d="M542.581 171.999V178.559H506.993L495.513 166.915L483.869 178.559H442.869L427.617 163.307V95.4114L442.869 80.1596H482.885L491.741 89.0155L493.381 8.05903H480.261V1.49902H515.849L531.101 16.751L529.461 171.999H542.581ZM491.741 160.519V99.1834L479.277 86.7195H466.157V171.999H480.261L491.741 160.519Z" fill="black"/>
<path d="M330.073 184.559L316.461 170.947V145.691L330.073 132.079H372.221V92.7192H355.001V118.959H320.561V99.7712L334.173 86.1592H396.329L409.941 99.7712V177.999H423.061V184.559H385.833L375.993 174.555L365.989 184.559H330.073ZM355.001 138.639V177.999H362.381L372.221 168.159V138.639H355.001Z" fill="#BA9AD3"/>
<path d="M323.073 178.559L309.461 164.947V139.691L323.073 126.079H365.221V86.7192H348.001V112.959H313.561V93.7712L327.173 80.1592H389.329L402.941 93.7712V171.999H416.061V178.559H378.833L368.993 168.555L358.989 178.559H323.073ZM348.001 132.639V171.999H355.381L365.221 162.159V132.639H348.001Z" fill="black"/>
<path d="M221.807 184.559L206.555 169.307V101.411L221.807 86.1592H284.783L300.035 101.411V128.307L284.783 143.559H244.275V177.999H281.995L295.771 164.223L300.855 169.307L285.603 184.559H221.807ZM244.275 92.7192V136.999H262.315V92.7192H244.275Z" fill="#BA9AD3"/>
<path d="M214.807 178.559L199.555 163.307V95.4112L214.807 80.1592H277.783L293.035 95.4112V122.307L277.783 137.559H237.275V171.999H274.995L288.771 158.223L293.855 163.307L278.603 178.559H214.807ZM237.275 86.7192V130.999H255.315V86.7192H237.275Z" fill="black"/>
<path d="M167.198 120.253H190.415V125.016H167.198V179.796H176.319L190.25 169.793L195.391 173.484L179.968 184.56H146.966L131.543 173.484L130.219 114H166.979L167.198 120.253ZM163.654 19.4434L166.311 95H129.795L127.999 14.3232H116.391V9.55957H149.89L163.654 19.4434Z" fill="#BA9AD3"/>
<path d="M160.198 114.253H183.415V119.016H160.198V173.796H169.319L183.25 163.793L188.391 167.484L172.968 178.56H139.966L124.543 167.484L123.353 114H160.189L160.198 114.253ZM156.654 13.4434L159.521 95H122.929L120.999 8.32324H109.391V3.55957H142.89L156.654 13.4434Z" fill="black"/>
<path d="M110.484 146.676V169.308L95.2324 184.56H25.8604L14.3799 173.08V186.2H7V145.2H14.3799V162.912L29.4678 178H82.2764L27.9541 114H82.75L110.484 146.676ZM107.204 92.7197H99.8242V75.0078L84.7363 59.9199H36.8477L66.623 95H11.8271L8.63965 91.2441V68.6113L23.8916 53.3594H88.3438L99.8242 64.8398V51.7197H107.204V92.7197Z" fill="#BA9AD3"/>
<path d="M103.484 140.676V163.308L88.2324 178.56H18.8604L7.37988 167.08V180.2H0V139.2H7.37988V156.912L22.4678 172H75.2764L26.0469 114H80.8428L103.484 140.676ZM100.204 86.7197H92.8242V69.0078L77.7363 53.9199H29.8477L64.7158 95H9.91992L1.63965 85.2441V62.6113L16.8916 47.3594H81.3438L92.8242 58.8398V45.7197H100.204V86.7197Z" fill="black"/>
</svg>
